<?xml version="1.0" encoding="utf-8"?>
<svg version="1.1" id="Layer_1" x="0px" y="0px" style="enable-background:new 0 0 2000 2000;" height="32px" width="32px" xmlns="http://www.w3.org/2000/svg">
  <style type="text/css">
	.compst0{fill:#070A0E;}
	.compst1{fill-rule:evenodd;clip-rule:evenodd;fill:#00D395;}
</style>
  <path class="compst0" d="M 16 32 C 24.837 32 32 24.837 32 16 C 32 7.163 24.837 0 16 0 C 7.163 0 0 7.163 0 16 C 0 24.837 7.163 32 16 32 Z"/>
  <path class="compst1" d="M 9.243 21.365 C 8.765 21.072 8.472 20.552 8.472 19.992 L 8.472 16.866 C 8.472 16.494 8.774 16.194 9.146 16.195 C 9.264 16.195 9.381 16.227 9.483 16.286 L 16.538 20.4 C 16.95 20.64 17.205 21.082 17.205 21.56 L 17.205 24.798 C 17.206 25.243 16.846 25.605 16.402 25.605 C 16.253 25.605 16.106 25.563 15.979 25.486 L 9.243 21.365 Z M 19.758 15.43 C 20.171 15.67 20.424 16.114 20.426 16.59 L 20.426 23.163 C 20.426 23.357 20.322 23.536 20.152 23.63 L 18.608 24.499 C 18.589 24.51 18.568 24.518 18.546 24.525 L 18.546 20.875 C 18.546 20.403 18.298 19.965 17.891 19.722 L 11.696 16.016 L 11.696 11.896 C 11.696 11.525 11.998 11.224 12.37 11.226 C 12.488 11.226 12.605 11.258 12.707 11.317 L 19.758 15.43 Z M 22.846 10.576 C 23.261 10.816 23.515 11.259 23.515 11.738 L 23.515 21.338 C 23.514 21.534 23.405 21.715 23.232 21.81 L 21.768 22.6 L 21.768 15.917 C 21.768 15.445 21.52 15.008 21.117 14.765 L 14.784 10.966 L 14.784 7.059 C 14.784 6.941 14.816 6.824 14.874 6.722 C 15.061 6.402 15.472 6.293 15.792 6.478 L 22.846 10.576 Z"/>
</svg>