<?xml version="1.0" encoding="utf-8"?>
<svg width="32px" height="32" fill="none" xmlns="http://www.w3.org/2000/svg">
  <path d="M25.484 22.2954C24.9228 22.3036 24.3738 22.4601 23.8926 22.7489L18.689 17.5373C18.9747 17.0556 19.1255 16.506 19.1255 15.946C19.1255 15.3859 18.9747 14.8363 18.689 14.3546L23.8926 9.15095C24.5726 9.5602 25.3787 9.70686 26.1592 9.56335C26.9397 9.41985 27.6409 8.99604 28.1309 8.3717C28.6208 7.74736 28.8657 6.96554 28.8195 6.17326C28.7733 5.38098 28.4392 4.63287 27.88 4.06972C27.3208 3.50656 26.5751 3.16714 25.7832 3.11534C24.9912 3.06354 24.2077 3.30292 23.5799 3.78844C22.9521 4.27395 22.5234 4.97212 22.3744 5.75163C22.2254 6.53114 22.3663 7.33827 22.7708 8.02111L17.5591 13.2327C17.0779 12.9439 16.5289 12.7874 15.9677 12.7792C15.4251 12.782 14.8928 12.9274 14.4241 13.2009L9.18866 7.95745C9.45562 7.48648 9.59799 6.95519 9.60238 6.41385C9.60238 5.78437 9.41576 5.16903 9.06604 4.64564C8.71632 4.12225 8.21924 3.71429 7.63768 3.4734C7.05612 3.23251 6.41619 3.1695 5.79881 3.29231C5.18143 3.41511 4.61431 3.71824 4.16921 4.16335C3.7241 4.60845 3.42102 5.17553 3.29821 5.79291C3.17541 6.41029 3.23842 7.05022 3.47931 7.63178C3.7202 8.21334 4.12815 8.71042 4.65154 9.06014C5.17493 9.40985 5.79023 9.59652 6.4197 9.59652C7.01131 9.59564 7.59062 9.42738 8.09064 9.11118L13.2705 14.2909C12.9535 14.7906 12.7851 15.3701 12.7851 15.9619C12.7851 16.5536 12.9535 17.1331 13.2705 17.6328L8.09064 22.8126C7.59062 22.4964 7.01131 22.3281 6.4197 22.3272C5.72083 22.3241 5.04037 22.551 4.48332 22.9731C3.92627 23.3951 3.52363 23.9888 3.33755 24.6625C3.15147 25.3361 3.19228 26.0523 3.45371 26.7005C3.71515 27.3486 4.18266 27.8927 4.78407 28.2487C5.38548 28.6047 6.08737 28.7528 6.78136 28.6703C7.47534 28.5877 8.12288 28.279 8.62396 27.7918C9.12505 27.3046 9.45185 26.6661 9.55391 25.9747C9.65597 25.2833 9.52762 24.5775 9.18866 23.9663L14.4241 18.7308C14.9052 19.0182 15.4551 19.1699 16.0155 19.1699C16.5758 19.1699 17.1257 19.0182 17.6068 18.7308L22.8185 23.9345C22.4676 24.5423 22.3275 25.2489 22.4198 25.9446C22.5122 26.6403 22.8319 27.2859 23.3292 27.781C23.8265 28.2762 24.4735 28.5931 25.1696 28.6825C25.8657 28.7718 26.5717 28.6286 27.178 28.2751C27.7842 27.9216 28.2566 27.3777 28.5217 26.7279C28.7868 26.0781 28.8297 25.3589 28.6437 24.6822C28.4577 24.0056 28.0533 23.4093 27.4933 22.9863C26.9334 22.5633 26.2494 22.3372 25.5476 22.3432L25.484 22.2954Z" fill="#E2665C"/>
</svg>