<?xml version="1.0" encoding="utf-8"?>
<svg width="32px" height="32" fill="none" xmlns="http://www.w3.org/2000/svg">
  <path d="M25.5781 3.2002C24.8709 3.20249 24.1843 3.43914 23.6259 3.87313C23.0675 4.30712 22.6688 4.91398 22.4919 5.59875H19.07C18.8859 4.92126 18.4839 4.32324 17.9262 3.89685C17.3685 3.47045 16.6859 3.23943 15.9839 3.23943C15.2818 3.23943 14.5993 3.47045 14.0415 3.89685C13.4838 4.32324 13.0819 4.92126 12.8977 5.59875H9.47578C9.33141 5.05438 9.04588 4.55777 8.648 4.15919C8.25013 3.7606 7.75401 3.47417 7.20991 3.32883C6.6658 3.18348 6.09297 3.18438 5.54934 3.33146C5.0057 3.47855 4.51057 3.76665 4.11397 4.16651C3.71738 4.56637 3.43341 5.06388 3.29079 5.6087C3.14816 6.15353 3.15192 6.72633 3.30172 7.26923C3.45152 7.81212 3.742 8.3058 4.14384 8.70039C4.54567 9.09499 5.0446 9.3765 5.59013 9.5164V12.9384C4.91264 13.1225 4.31458 13.5244 3.88818 14.0821C3.46178 14.6398 3.23076 15.3224 3.23076 16.0245C3.23076 16.7266 3.46178 17.4091 3.88818 17.9669C4.31458 18.5246 4.91264 18.9265 5.59013 19.1106V22.5326C4.83646 22.7272 4.17963 23.1899 3.74276 23.8341C3.30589 24.4784 3.11897 25.2598 3.21705 26.032C3.31513 26.8042 3.69149 27.5141 4.27554 28.0287C4.8596 28.5432 5.61126 28.8271 6.38965 28.8271C7.16804 28.8271 7.9197 28.5432 8.50376 28.0287C9.08781 27.5141 9.46417 26.8042 9.56225 26.032C9.66033 25.2598 9.47341 24.4784 9.03654 23.8341C8.59967 23.1899 7.94284 22.7272 7.18917 22.5326V19.1106C7.73912 18.9671 8.24088 18.6795 8.64278 18.2776C9.04469 17.8757 9.33222 17.374 9.47578 16.824H12.8977C13.0923 17.5777 13.5551 18.2345 14.1993 18.6713C14.8436 19.1082 15.6251 19.2952 16.3972 19.1971C17.1694 19.099 17.8793 18.7226 18.3939 18.1385C18.9084 17.5545 19.1923 16.8029 19.1923 16.0245C19.1923 15.2461 18.9084 14.4944 18.3939 13.9103C17.8793 13.3263 17.1694 12.95 16.3972 12.8519C15.6251 12.7538 14.8436 12.9407 14.1993 13.3776C13.5551 13.8144 13.0923 14.4713 12.8977 15.225H9.47578C9.33222 14.675 9.04469 14.1733 8.64278 13.7714C8.24088 13.3695 7.73912 13.0819 7.18917 12.9384V9.5164C7.73912 9.37284 8.24088 9.08532 8.64278 8.68341C9.04469 8.2815 9.33222 7.77975 9.47578 7.2298H12.8977C13.0819 7.90728 13.4838 8.5053 14.0415 8.9317C14.5993 9.3581 15.2818 9.58911 15.9839 9.58911C16.6859 9.58911 17.3685 9.3581 17.9262 8.9317C18.4839 8.5053 18.8859 7.90728 19.07 7.2298H22.4919C22.6416 7.80937 22.9509 8.33534 23.3847 8.74783C23.8185 9.16031 24.3593 9.44274 24.9456 9.56306C25.532 9.68337 26.1404 9.63671 26.7016 9.42837C27.2627 9.22003 27.7542 8.85839 28.12 8.38457C28.4857 7.91075 28.7112 7.34378 28.7707 6.74815C28.8302 6.15253 28.7213 5.55213 28.4565 5.01531C28.1917 4.4785 27.7815 4.02684 27.2726 3.71161C26.7638 3.39638 26.1767 3.23027 25.5781 3.23221V3.2002Z" fill="#E2665C"/>
</svg>