<?xml version="1.0" encoding="utf-8"?>
<svg width="32px" height="32px" fill="none" xmlns="http://www.w3.org/2000/svg">
  <g transform="matrix(0.083198, 0, 0, 0.083198, 0.916802, 0.91696)">
    <path d="M 31.7 276.096 C 33.1 255.096 32.7 233.496 35.2 211.996 C 36.6 200.296 39.1 188.696 40.1 176.996 C 41.4 160.996 39.8 144.996 39.4 128.896 C 39.3 124.196 38.8 119.496 40 114.796 C 40.6 112.396 41.5 109.896 44 109.396 C 48.3 108.396 47.1 105.996 46.2 103.396 C 45.2 100.496 44.3 97.596 43.2 94.796 C 37.2 80.096 42.3 66.896 49.6 54.496 C 55.8 43.896 63.9 34.396 72.4 25.496 C 81.9 15.496 93.7 10.496 107.6 10.296 C 110.2 10.296 112.8 10.196 115.5 9.996 C 116.8 9.896 118.1 9.896 119.5 9.796 C 120.7 9.696 122 9.796 123.2 9.596 C 123.6 9.496 124 9.396 124.4 9.296 C 125.1 9.296 125.8 9.496 126.4 9.496 C 127.9 9.696 129.3 9.896 130.8 10.196 C 133.7 10.696 136.6 11.196 139.5 11.796 C 145.3 12.896 151 14.296 156.7 15.796 C 159.8 16.596 162.9 17.496 165.8 18.996 C 171.1 21.896 174.9 26.796 180 29.996 C 183.5 32.196 187.4 33.496 190.6 36.096 C 194.2 38.996 196.5 43.096 198.7 47.196 C 201.1 51.596 203.5 55.996 205.1 60.796 C 205.5 61.996 205.9 63.296 206.2 64.496 C 207.4 69.596 208 74.796 208.6 79.996 C 209.2 85.096 209.9 90.296 211.6 95.196 C 212 96.396 212.5 97.596 213 98.796 C 213.2 99.296 213.5 99.796 213.6 100.296 C 213.6 100.996 213.5 101.696 213.5 102.396 C 213.4 117.496 212.1 132.496 211.8 147.596 C 211.3 171.996 209.6 196.396 206.9 220.696 C 206.4 224.996 207 229.196 208 233.296 C 210.9 245.496 211.8 257.696 210 270.296 C 208.5 280.896 208.5 291.796 207.8 302.596 C 207.5 307.396 204.9 309.396 200.2 309.496 C 194.7 309.596 189.7 307.296 184.2 307.196 C 176.5 306.996 169.1 308.796 161.6 309.596 C 149 310.796 136.8 308.496 124.4 306.996 C 122.2 306.796 120.1 305.796 117.9 305.896 C 115.6 305.896 113.4 305.996 111.1 305.896 C 110 305.796 108.9 305.796 107.8 305.496 C 107.1 305.296 106.6 304.996 105.9 304.896 C 102.9 304.596 99.9 304.596 96.9 304.396 C 93.9 304.296 90.9 304.096 87.9 303.996 C 81.9 303.696 75.8 303.496 69.8 303.296 C 63.8 303.096 57.7 302.896 51.7 302.696 C 50.2 302.696 48.7 302.596 47.2 302.596 C 45.8 302.596 44.2 302.296 42.8 302.496 C 42.4 302.596 42 302.796 41.7 302.896 C 40.3 303.296 38.6 303.096 37.2 302.796 C 32.8 301.596 31.7 296.896 31.6 292.896 C 31.5 290.196 31.8 287.496 31.9 284.796 C 31.7 282.096 31.7 279.396 31.7 276.096 Z" fill="#6B00FA" stroke="black" stroke-width="0.5" stroke-miterlimit="10"/>
    <path d="M 216.2 359.997 C 215.4 365.197 216.1 371.097 214.6 376.697 C 214 378.897 213.5 380.997 211.1 381.897 C 208.8 382.697 207.2 381.697 206.1 379.697 C 205.3 378.297 203.9 378.397 202.5 378.297 C 191.2 377.597 179.9 376.897 168.7 376.297 C 130.1 374.297 91.6 372.297 53 370.297 C 42.2 369.797 31.4 369.497 20.6 368.897 C 17.7 368.697 11.9 368.897 11.2 364.997 C 11 363.797 10.3 362.797 10 361.597 C 9.3 359.097 9.2 356.397 9.2 353.797 C 9 347.797 8.9 341.697 8.7 335.697 C 8.7 334.697 8.7 333.697 8.6 332.697 C 8.6 331.997 8.4 331.597 8.1 331.097 C 7.4 329.597 8 327.897 9 326.697 C 10.3 325.097 12.1 324.397 14 325.197 C 20.2 327.497 26.7 326.997 33 327.397 C 62.6 329.097 92.3 330.397 122 331.797 C 149 333.097 175.9 334.497 202.9 335.897 C 212.2 336.397 215.8 340.197 215.8 349.597 C 215.8 352.897 216 356.197 216.2 359.997 Z" fill="#4300BF" stroke="black" stroke-width="0.5" stroke-miterlimit="10"/>
    <path d="M 130.101 306.496 C 121.001 306.196 111.801 305.796 102.801 304.496 C 97.001 303.596 91.401 302.296 85.601 301.496 C 79.401 300.696 73.001 300.596 66.801 300.496 C 57.301 300.296 47.601 300.196 38.401 302.496 C 29.201 304.796 20.201 309.896 15.301 318.096 C 24.001 324.496 35.401 325.296 46.201 325.896 C 52.801 326.296 59.401 326.596 66.001 326.996 C 114.701 329.696 163.401 332.396 212.101 332.496 C 210.601 327.896 209.101 323.196 207.501 318.596 C 206.101 314.496 204.101 309.696 199.301 308.696 C 197.701 308.396 196.101 308.696 194.501 308.796 C 191.701 308.796 188.801 308.596 186.001 308.496 C 174.101 308.096 162.101 307.596 150.201 307.196 C 143.501 306.996 136.801 306.696 130.101 306.496 Z" fill="#6B00FA" stroke="black" stroke-width="0.5" stroke-miterlimit="10"/>
    <path d="M 240.8 298.096 C 242.3 297.296 244 296.496 244.9 295.096 C 245.8 293.696 245.9 291.996 246 290.396 C 246.4 283.796 246.8 277.296 247.2 270.696 C 247.7 263.296 248.1 255.896 248 248.496 C 247.9 241.496 247.2 234.496 247.6 227.596 C 248 221.196 249.3 214.896 250 208.496 C 252.5 185.896 247.2 163.096 248.2 140.396 C 248.6 131.996 249.9 123.596 250.4 115.096 C 251.9 92.196 247.9 68.896 238.9 47.796 C 238.1 45.996 237.3 44.196 235.8 42.996 C 233.8 41.396 231.1 41.196 228.9 39.896 C 225.8 37.996 224.6 34.196 222.9 30.896 C 218.7 22.696 210.7 17.096 202 13.996 C 193.3 10.896 184.1 9.996 175 9.096 C 168.6 8.496 162.2 7.896 155.8 7.196 C 152.7 6.896 148.2 7.896 148.7 10.996 C 157.9 17.896 168.5 22.896 178.2 29.096 C 187.9 35.296 197.1 43.196 201.7 53.796 C 203.7 58.296 204.7 63.196 205.7 68.096 C 208.7 82.096 211.6 96.096 212.3 110.396 C 212.8 120.796 212.1 131.296 211.4 141.796 C 210.5 155.496 209.9 169.296 209.3 182.996 C 208.7 196.696 208.3 210.496 208.1 224.196 C 207.8 237.996 207.7 251.696 207.8 265.396 C 207.8 272.296 207.9 279.196 208 285.996 C 208 289.396 208.1 292.896 208.2 296.296 C 208.3 299.496 208 302.996 208.4 306.296 C 209.1 311.196 214.6 310.496 218 308.996 C 224.2 306.296 230.2 303.096 236.4 300.096 C 237.5 299.696 239.7 298.096 240.8 298.096 Z" fill="#4300BF" stroke="black" stroke-width="0.5" stroke-miterlimit="10"/>
    <path d="M 214.7 331.296 C 215.1 331.996 215.6 332.796 216.4 332.796 C 216.9 332.796 217.4 332.496 217.8 332.296 C 222.4 329.196 226.2 324.996 231.2 322.696 C 234.6 321.096 238.3 320.496 241.8 319.296 C 246.8 317.596 251.3 314.696 255.8 311.896 C 257.4 310.896 259.2 309.396 258.9 307.496 C 258.8 306.796 258.4 306.196 258 305.696 C 255.5 302.296 252.5 299.396 249.1 296.996 C 248.4 296.496 247.7 296.096 246.9 295.996 C 245.9 295.896 244.9 296.396 244 296.796 C 236.7 300.396 229.5 303.996 222.3 307.696 C 218.7 309.496 215.1 311.396 211.5 313.196 C 208.5 314.696 206 315.796 208 319.396 C 210.3 323.396 212.7 327.296 214.7 331.296 Z" fill="#100342" stroke="black" stroke-width="0.5" stroke-miterlimit="10"/>
    <path d="M 217.899 374.296 C 217.999 374.996 218.1 375.796 218.5 376.296 C 219.6 377.496 221.499 376.796 222.899 375.996 C 234.999 369.196 247.1 362.396 259.2 355.596 C 260.4 354.896 261.7 354.196 262.5 352.996 C 263.3 351.696 263.4 350.096 263.5 348.596 C 263.9 340.496 264.2 332.396 264.6 324.196 C 264.7 321.896 264.699 319.396 263.399 317.596 C 261.999 315.596 259.299 314.996 256.899 315.296 C 254.499 315.596 252.299 316.796 250.199 317.996 C 240.499 323.396 230.8 328.696 221.1 333.996 C 217.9 335.796 214 336.996 214.3 341.196 C 214.6 346.096 215.399 350.996 215.899 355.796 C 216.199 358.896 216.599 361.896 216.899 364.996 C 217.199 368.096 217.899 371.296 217.899 374.296 Z" fill="#100342" stroke="black" stroke-width="0.5" stroke-miterlimit="10"/>
    <path d="M 163.1 60.496 C 165 62.096 164.8 65.396 162.8 66.896 C 160.8 68.396 157.6 67.396 156.7 65.096 C 155.8 62.796 157.5 59.896 159.9 59.496 C 161 59.396 162.2 59.696 163.1 60.496 Z" fill="#4300BF"/>
    <path d="M 179.3 74.597 C 179.2 75.097 179.1 75.497 179.1 75.997 C 179.2 76.897 179.8 77.597 180.6 77.897 C 182.7 78.997 185.8 77.397 186.1 74.997 C 186.3 72.597 183.7 70.297 181.4 70.997 C 181.2 70.897 180.9 71.097 180.8 71.297 C 179.9 72.397 179.7 73.397 179.3 74.597 Z" fill="#4300BF"/>
    <path d="M 169.4 88.696 C 167.9 88.696 166.4 88.696 165 88.696 C 164.6 88.696 164.2 88.696 163.9 88.996 C 163.7 89.196 163.7 89.496 163.6 89.796 C 163.4 90.996 163.3 92.096 163.2 93.296 C 163.1 94.696 163.1 96.496 164.3 97.196 C 165.1 97.596 166 97.496 166.8 97.696 C 167.5 97.896 168.1 98.296 168.8 98.196 C 170.2 98.196 171.1 96.696 171.4 95.296 C 171.7 93.796 171.8 92.296 171.1 90.896 C 170.4 89.496 169 88.496 167.5 88.696" fill="#4300BF"/>
    <path d="M 236.899 132.196 C 235.899 131.196 234.699 131.296 233.399 131.696 C 232.199 132.096 231.499 133.296 231.599 134.496 C 231.599 135.496 232.299 136.496 232.999 137.196 C 234.099 138.296 236.099 137.296 236.899 136.296 C 237.899 135.296 237.899 133.396 236.899 132.196 Z" fill="#6B00FA"/>
    <path d="M 229.9 148.996 C 229.8 148.396 229.4 147.396 228.9 146.896 C 228.3 146.296 227.1 146.596 226.4 146.896 C 225.8 147.196 225.2 147.596 224.7 148.096 C 224.5 148.296 224.3 148.396 224.2 148.696 C 223.9 149.196 223.8 149.696 223.7 150.296 C 223.7 150.596 223.4 151.996 223.7 152.196 C 224.9 152.996 226.5 153.196 227.9 152.596 C 229.1 151.896 230.1 150.396 229.9 148.996 Z" fill="#6B00FA"/>
    <path d="M 57.6 275.396 C 55.7 275.396 53.9 276.296 53 277.896 C 52.1 279.496 52.4 281.796 53.8 282.996 C 55.3 284.296 60.2 284.196 61.6 282.896 C 63 281.596 61.1 279.296 60.3 277.396 C 59.1 276.696 57.8 275.996 56.5 275.396" fill="#4300BF"/>
    <path d="M 48.899 242.296 C 48.299 243.896 47.799 245.496 47.499 247.196 C 47.399 247.496 47.399 247.896 47.599 248.196 C 47.899 248.696 48.499 248.796 49.099 248.896 C 50.599 248.996 52.299 248.996 53.199 247.896 C 53.499 247.596 53.699 247.096 53.799 246.696 C 54.299 245.096 53.999 243.196 52.599 242.296 C 51.199 241.396 48.999 241.896 48.699 243.496" fill="#4300BF"/>
    <path d="M 71.2 258.696 C 71 258.196 70.6 257.396 70.1 257.196 C 69.8 257.096 69.3 257.196 68.9 257.196 C 68.5 257.196 68.2 257.196 67.8 257.196 C 67.5 257.196 67.2 257.196 67 257.296 C 66.6 257.496 66.2 258.096 65.9 258.396 C 65.7 258.496 65.6 258.596 65.5 258.796 C 65.2 259.296 65.1 259.996 65.1 260.596 C 65.1 260.796 65.1 262.396 65.3 262.396 C 66.3 262.596 69.8 262.896 70.8 263.096 C 71.4 263.196 69.7 263.396 70.2 262.996 C 70.4 262.796 70.6 262.596 70.8 262.296 C 71.3 261.096 71.6 259.796 71.2 258.696 Z" fill="#4300BF"/>
    <path d="M 169.199 366.096 C 171.099 367.496 174.199 367.096 175.499 365.096 C 176.499 363.596 176.299 361.696 175.999 359.896 C 175.899 359.396 175.799 358.896 175.499 358.596 C 175.199 358.296 174.699 358.196 174.199 358.196 C 172.799 357.996 171.599 358.096 170.199 358.096 C 169.999 358.096 169.799 358.096 169.599 358.096 C 169.099 358.296 168.599 358.696 168.199 359.096 C 167.199 360.096 166.799 361.296 167.099 362.696 C 167.399 363.996 168.099 365.296 169.199 366.096 Z" fill="#6B00FA"/>
    <path d="M 156.499 346.596 C 155.099 347.196 154.399 348.896 154.899 350.296 C 155.699 350.996 156.699 351.596 157.799 351.696 C 158.899 351.796 160.099 351.096 160.299 349.996 C 160.499 349.096 159.999 348.296 159.499 347.496 C 158.999 346.696 158.399 345.896 157.499 345.596 C 156.599 345.396 155.399 346.196 155.799 347.096" fill="#6B00FA"/>
    <path d="M 226.6 277.197 C 225 276.697 223.2 277.397 222.1 278.597 C 221 279.897 220.5 281.597 220.4 283.197 C 220.3 284.097 220.4 284.997 220.9 285.697 C 221.6 286.597 222.9 286.697 224 286.397 C 226.2 285.997 228.2 284.397 228.8 282.297 C 229.4 280.197 228 277.497 225.8 277.197 C 227.4 276.997 225.5 276.097 226.6 277.197 Z" fill="#6B00FA"/>
    <path d="M 233.7 251.896 C 231.6 252.296 229.6 253.796 229.4 255.896 C 229.2 257.996 231.6 259.996 233.5 258.996 C 235.4 257.196 235.2 253.696 233.2 251.996" fill="#6B00FA"/>
    <path d="M 168 48.296 C 166.8 48.596 166.3 50.196 166.8 51.296 C 167.3 52.396 168.6 52.996 169.9 52.996 C 170.5 52.996 171.2 52.796 171.5 52.296 C 171.6 51.996 171.7 51.696 171.7 51.396 C 171.7 50.296 171.7 49.096 171.4 47.996 C 170.3 47.896 169.2 47.896 168.1 48.096" fill="#100342"/>
    <path d="M 157 65.996 C 156.1 66.096 155.1 66.196 154.3 66.596 C 153.5 66.996 152.8 67.896 152.9 68.796 C 153 69.996 154.3 70.796 155.4 71.296 C 156.3 71.696 157.5 72.096 158.3 71.396 C 159.1 70.696 158.8 69.496 159.4 68.596 C 159.6 68.296 159.9 67.996 160 67.596 C 160.1 66.896 159.3 66.396 158.6 66.296 C 157.9 66.196 157.1 66.096 156.8 65.496" fill="#100342"/>
    <path d="M 142.101 44.397 C 141.201 44.897 140.201 45.597 139.701 46.497 C 138.701 48.197 139.501 50.897 141.401 51.297 C 143.301 51.697 145.001 49.997 146.001 48.297 C 146.101 48.097 146.201 47.897 146.201 47.697 C 146.201 47.497 146.001 47.297 145.801 47.197 C 144.701 46.397 143.601 45.597 142.501 44.897 C 142.201 44.697 141.701 44.497 141.501 44.897" fill="#100342"/>
    <path d="M 65 61.997 C 64.5 63.197 64.3 64.597 64.4 65.997 C 65.3 66.497 66.4 66.397 67.3 65.997 C 68.2 65.497 68.9 64.797 69.5 63.897 C 69.6 63.697 69.8 63.497 69.8 63.197 C 69.8 62.797 69.6 62.397 69.3 62.097 C 68.7 61.397 67.9 60.897 67 60.797 C 66.1 60.697 65.1 61.397 65 62.197" fill="#100342"/>
    <path d="M 60.501 78.296 C 59.701 78.696 59.601 79.996 60.101 80.696 C 60.701 81.396 61.701 81.696 62.601 81.596 C 63.201 81.496 63.901 81.296 64.101 80.796 C 64.501 79.996 63.901 79.096 63.301 78.496 C 62.701 77.796 61.801 76.996 60.801 77.296" fill="#100342"/>
    <path d="M 100.999 26.896 C 100.599 27.896 100.599 29.096 100.899 30.196 C 101.399 30.996 102.599 31.196 103.399 30.696 C 104.199 30.196 104.599 29.196 104.499 28.196 C 104.299 27.096 103.099 25.996 102.099 26.496" fill="#100342"/>
    <path d="M 188.8 124.696 C 188.1 125.896 188.4 127.696 189.6 128.496 C 190.8 129.296 192.6 128.896 193.3 127.696 C 193.7 127.096 193.7 126.196 193.5 125.496 C 193.1 124.496 192 123.796 190.9 123.796 C 189.8 123.696 188.7 124.196 187.9 124.896 C 188.3 124.996 188.6 125.196 189 125.296" fill="#100342"/>
    <path d="M 182.3 271.597 C 182.2 273.097 181.5 274.497 181.5 275.997 C 181.5 277.497 182.5 279.197 184 279.197 C 185.3 279.197 186.2 277.997 186.8 276.897 C 187.3 276.197 187.7 275.397 188.1 274.697 C 188.4 274.297 188.6 273.797 188.4 273.297 C 188.3 273.097 188.1 272.897 187.9 272.797 C 186.2 271.697 184.1 271.197 182 271.297" fill="#100342"/>
    <path d="M 182.3 271.597 C 182.2 273.097 181.5 274.497 181.5 275.997 C 181.5 277.497 182.5 279.197 184 279.197 C 185.3 279.197 186.2 277.997 186.8 276.897 C 187.3 276.197 187.7 275.397 188.1 274.697 C 188.4 274.297 188.6 273.797 188.4 273.297 C 188.3 273.097 188.1 272.897 187.9 272.797 C 186.2 271.697 184.1 271.197 182 271.297" stroke="black" stroke-width="0.5" stroke-miterlimit="10"/>
    <path d="M 173.5 254.296 C 174 255.396 174.8 256.496 175.9 256.796 C 177.8 257.396 180 255.096 179.2 253.296 C 178.4 251.496 175.2 251.396 174.4 253.296" fill="#100641"/>
    <path d="M 132.701 281.096 C 132.001 282.896 133.5 285.096 135.4 285.396 C 137.3 285.696 139.201 284.097 139.701 282.197 C 139.801 281.897 139.801 281.497 139.601 281.197 C 139.401 280.897 139.101 280.797 138.701 280.697 C 137.101 280.297 135.401 279.896 133.801 279.396 C 133.601 279.896 133.401 280.496 133.301 280.996" fill="#100641"/>
    <path d="M 58.001 208.896 C 57.801 209.796 57.501 210.696 57.701 211.596 C 57.801 212.496 58.401 213.396 59.301 213.596 C 60.301 213.896 61.401 213.096 61.801 212.096 C 62.201 211.096 62.201 209.996 62.101 208.996 C 60.901 208.796 59.701 208.596 58.601 208.396" fill="#100342"/>
    <path d="M 48.5 343.597 C 48.1 344.897 47.8 346.597 48.9 347.497 C 50.1 348.497 51.8 347.597 53.3 347.897 C 53.6 346.697 53.7 345.397 53.4 344.197 C 53.1 342.997 52.2 341.797 51 341.597 C 49.8 341.297 48.4 342.297 48.5 343.597 C 48.7 343.597 49.1 343.597 49.4 343.597 L 48.5 343.597 Z" fill="#100641"/>
    <path d="M 71.301 352.296 C 71.301 353.896 71.301 355.396 71.401 356.996 C 72.501 357.196 73.701 357.296 74.901 357.496 C 75.201 357.496 75.601 357.596 75.901 357.396 C 76.201 357.196 76.301 356.796 76.401 356.396 C 76.801 354.696 76.801 352.796 75.601 351.496 C 74.401 350.296 71.801 350.596 71.601 352.296" fill="#100641"/>
    <path d="M 174.601 355.096 C 173.501 355.996 172.901 357.596 173.501 358.896 C 174.101 360.196 175.901 360.896 177.101 359.996 C 177.601 358.896 178.101 357.696 177.901 356.496 C 177.701 355.296 176.101 354.396 175.101 355.196" fill="#100641"/>
    <path d="M 229.401 355.296 C 229.201 356.096 229.101 356.996 229.401 357.796 C 229.701 358.596 230.801 359.096 231.501 358.596 C 231.801 358.396 231.901 358.096 232.001 357.796 C 232.401 356.896 232.601 355.996 232.501 355.096 C 232.401 354.196 231.701 353.296 230.801 353.196 C 229.901 353.096 228.901 353.996 229.201 354.796" fill="#100641"/>
    <path d="M 224.001 234.996 C 223.801 235.896 223.501 236.796 223.701 237.696 C 223.901 238.596 224.601 239.496 225.501 239.396 C 226.901 239.396 227.501 237.696 227.701 236.296 C 227.901 235.096 227.901 233.496 226.801 232.996 C 225.601 232.496 224.501 233.796 223.801 234.796" fill="#100641"/>
    <path d="M 234.101 84.196 C 233.901 85.096 233.801 86.096 234.201 86.896 C 234.601 87.696 235.701 88.196 236.501 87.696 C 236.901 87.496 237.101 87.096 237.301 86.696 C 237.601 85.896 237.901 85.096 237.701 84.296 C 237.501 83.496 236.901 82.696 236.101 82.596 C 235.301 82.496 234.401 83.296 234.601 84.096" fill="#100342"/>
    <path d="M 228.6 97.596 C 228.6 98.696 228.6 99.696 228.7 100.796 C 230.2 100.996 231.7 99.896 231.9 98.396 C 232.1 96.896 230.9 95.396 229.4 95.296 C 229.5 95.996 229.3 96.696 229 97.296" fill="#100342"/>
    <path d="M 241.8 100.096 C 241.4 101.196 241.1 102.396 241.3 103.596 C 241.5 104.796 242.7 105.796 243.8 105.596 C 245.3 105.296 245.6 103.196 245.5 101.596 C 245.4 100.496 245.3 99.196 244.4 98.596 C 243.5 97.996 241.8 98.696 242.2 99.696" fill="#100342"/>
    <path d="M 86.901 213.896 C 88.601 207.896 85.401 202.496 80.801 197.096 C 73.701 188.796 67.201 180.096 65.701 168.496 C 62.401 142.296 77.001 116.696 101.101 107.396 C 126.401 97.596 154.401 106.396 169.501 128.796 C 176.201 138.696 179.601 149.596 179.601 161.596 C 179.601 172.596 176.101 182.096 168.401 189.996 C 164.701 193.696 161.601 197.996 157.701 201.496 C 153.601 205.096 152.101 209.196 152.401 214.396 C 152.601 218.496 152.101 222.596 152.201 226.696 C 152.201 226.996 152.201 227.296 152.201 227.496 C 152.201 227.896 152.101 228.196 152.101 228.496 C 152.101 228.696 152.101 230.596 152.201 230.596 C 151.501 230.596 150.801 230.596 150.201 230.696 C 149.401 230.696 148.601 230.796 147.801 230.696 C 146.301 230.496 144.901 230.496 143.401 230.396 C 143.101 230.396 142.801 230.396 142.401 230.296 C 141.801 230.296 141.301 230.196 140.701 230.196 C 140.501 230.196 140.301 230.096 140.001 230.096 C 139.701 230.096 139.401 230.096 139.101 230.096 C 138.001 230.096 136.801 230.096 135.601 230.096 C 135.601 229.496 135.501 228.896 135.501 228.296 C 135.401 227.096 135.401 225.896 135.401 224.696 C 135.401 222.396 135.301 220.096 135.301 217.796 C 135.301 217.696 135.301 217.596 135.201 217.496 C 135.101 217.396 135.001 217.396 134.901 217.396 C 132.501 217.196 130.101 217.396 127.701 217.696 C 127.701 219.096 127.701 220.496 127.601 221.996 C 127.601 222.396 127.601 222.796 127.601 223.196 C 127.601 223.796 127.601 224.296 127.501 224.896 C 127.501 225.096 127.401 225.196 127.401 225.296 C 127.301 225.496 127.301 225.796 127.301 225.996 C 127.201 227.096 127.201 228.296 127.401 229.396 C 126.701 229.396 126.001 229.396 125.201 229.396 C 124.301 229.396 123.301 229.396 122.401 229.196 C 121.301 228.996 120.101 229.096 119.001 228.996 C 118.601 228.996 118.101 228.996 117.701 228.896 C 116.601 228.896 115.501 228.696 114.401 228.696 C 113.801 228.696 113.301 228.696 112.701 228.696 C 112.601 228.696 111.101 228.796 111.001 228.896 C 111.001 227.896 111.101 226.796 111.101 225.796 C 111.101 225.296 111.101 224.796 111.201 224.196 C 111.201 223.696 111.301 223.196 111.301 222.696 C 111.301 220.696 111.301 218.696 111.201 216.596 C 108.601 216.096 105.901 215.896 103.201 215.896 C 103.101 218.196 103.001 220.496 102.801 222.796 C 102.701 223.896 102.701 225.096 102.601 226.296 C 102.601 226.596 102.601 226.896 102.601 227.196 C 102.601 227.396 102.601 227.596 102.501 227.696 C 102.401 227.896 101.901 227.896 101.701 227.896 C 100.301 227.996 98.801 227.896 97.401 227.796 C 96.801 227.796 96.101 227.696 95.501 227.696 C 93.901 227.596 92.301 227.596 90.701 227.496 C 90.201 227.496 89.601 227.396 89.101 227.396 C 88.801 227.296 88.501 227.196 88.101 227.196 C 88.001 227.196 86.401 227.096 86.401 227.096 C 86.401 226.996 86.401 226.896 86.401 226.796 C 86.401 225.696 86.401 224.496 86.401 223.296 C 86.401 222.796 86.301 222.296 86.501 221.796 C 86.601 221.596 86.501 221.396 86.501 221.196 C 86.501 220.696 86.501 220.196 86.501 219.696 C 86.501 218.396 86.601 217.196 86.601 215.896 C 86.801 215.896 86.801 215.496 86.901 213.896 Z M 119.301 195.496 C 120.201 195.596 121.101 195.596 122.001 195.696 C 123.401 195.796 124.901 195.896 126.301 196.096 C 125.801 194.596 125.301 193.096 124.701 191.696 C 124.501 191.096 124.201 190.596 124.001 190.096 C 123.801 189.596 123.501 189.196 123.301 188.696 C 123.201 188.596 123.201 188.396 123.201 188.296 C 123.101 187.796 122.901 187.396 122.801 186.896 C 122.301 185.696 121.901 184.396 121.401 183.096 C 121.201 182.496 121.001 181.996 120.701 181.396 C 120.701 181.496 120.501 181.796 120.501 181.796 C 120.401 181.996 120.201 182.196 120.101 182.396 C 118.801 184.196 117.601 185.996 116.501 187.896 C 115.901 188.796 115.401 189.796 114.801 190.796 C 114.501 191.296 114.301 191.796 114.001 192.196 C 113.901 192.396 113.801 192.596 113.701 192.796 C 113.601 193.196 113.201 193.596 112.901 193.996 C 112.501 194.496 112.101 194.996 111.801 195.596 C 111.801 195.596 112.101 195.596 112.201 195.596 C 112.301 195.596 112.501 195.596 112.601 195.596 C 112.901 195.596 113.201 195.596 113.501 195.596 C 114.101 195.596 114.601 195.596 115.201 195.496 C 115.401 195.496 115.701 195.396 115.901 195.396 C 116.201 195.396 116.501 195.396 116.801 195.496 C 117.401 195.496 117.901 195.596 118.501 195.596 C 118.801 195.396 119.101 195.396 119.301 195.496 Z" fill="#E0E3BD" stroke="black" stroke-width="0.5" stroke-miterlimit="10"/>
    <path d="M 84.601 211.096 C 86.201 205.196 83.101 199.896 78.601 194.596 C 71.601 186.396 65.201 177.896 63.801 166.596 C 60.601 140.896 74.901 115.896 98.501 106.796 C 123.301 97.196 150.701 105.796 165.601 127.796 C 172.101 137.496 175.501 148.196 175.601 159.896 C 175.601 170.696 172.201 179.996 164.601 187.696 C 161.001 191.396 158.001 195.596 154.101 198.896 C 150.101 202.396 148.601 206.396 148.901 211.596 C 149.101 215.596 148.601 219.596 148.701 223.596 C 148.701 223.896 148.701 224.096 148.701 224.396 C 148.701 224.696 148.601 225.096 148.601 225.396 C 148.601 225.596 148.601 227.396 148.701 227.396 C 148.001 227.396 147.401 227.396 146.701 227.396 C 145.901 227.396 145.101 227.496 144.301 227.396 C 142.901 227.196 141.401 227.196 140.001 227.096 C 139.701 227.096 139.401 227.096 139.101 226.996 C 138.501 226.996 138.001 226.896 137.401 226.896 C 137.201 226.896 137.001 226.796 136.801 226.796 C 136.501 226.796 136.201 226.796 135.901 226.796 C 134.801 226.796 133.601 226.796 132.501 226.796 C 132.501 226.196 132.401 225.696 132.401 225.096 C 132.301 223.896 132.301 222.796 132.301 221.596 C 132.301 219.296 132.201 217.096 132.201 214.796 C 132.201 214.696 132.201 214.596 132.101 214.496 C 132.001 214.396 131.901 214.396 131.801 214.396 C 129.501 214.196 127.101 214.396 124.801 214.696 C 124.801 216.096 124.801 217.496 124.701 218.896 C 124.701 219.296 124.701 219.696 124.701 220.096 C 124.701 220.596 124.701 221.196 124.601 221.796 C 124.601 221.996 124.501 222.096 124.501 222.196 C 124.401 222.396 124.401 222.696 124.401 222.896 C 124.301 223.996 124.301 225.096 124.501 226.196 C 123.801 226.196 123.101 226.196 122.401 226.196 C 121.501 226.196 120.601 226.196 119.701 225.996 C 118.601 225.796 117.501 225.896 116.301 225.796 C 115.901 225.796 115.401 225.796 115.001 225.696 C 113.901 225.696 112.901 225.496 111.801 225.496 C 111.201 225.496 110.701 225.496 110.101 225.496 C 110.001 225.496 108.501 225.596 108.501 225.696 C 108.501 224.696 108.601 223.696 108.601 222.596 C 108.601 222.096 108.601 221.596 108.701 221.096 C 108.701 220.596 108.801 220.096 108.801 219.596 C 108.801 217.596 108.801 215.596 108.701 213.596 C 106.101 213.196 103.501 212.896 100.901 212.896 C 100.801 215.196 100.701 217.396 100.601 219.696 C 100.501 220.796 100.501 221.996 100.401 223.096 C 100.401 223.396 100.401 223.696 100.401 223.996 C 100.401 224.196 100.401 224.396 100.301 224.496 C 100.201 224.696 99.701 224.696 99.501 224.696 C 98.101 224.796 96.701 224.696 95.301 224.596 C 94.701 224.596 94.001 224.496 93.401 224.496 C 91.801 224.396 90.201 224.396 88.701 224.296 C 88.201 224.296 87.701 224.196 87.101 224.196 C 86.801 224.196 86.501 223.996 86.101 223.996 C 86.001 223.996 84.501 223.896 84.501 223.896 C 84.501 223.796 84.501 223.696 84.501 223.596 C 84.501 222.496 84.501 221.296 84.501 220.196 C 84.501 219.696 84.401 219.196 84.601 218.796 C 84.701 218.596 84.601 218.396 84.601 218.196 C 84.601 217.696 84.601 217.196 84.601 216.696 C 84.601 215.496 84.701 214.196 84.701 212.996 C 84.501 212.996 84.501 212.696 84.601 211.096 Z M 116.401 192.996 C 117.301 193.096 118.201 193.096 119.001 193.196 C 120.401 193.296 121.801 193.396 123.201 193.596 C 122.701 192.196 122.301 190.696 121.701 189.196 C 121.501 188.596 121.201 188.096 121.001 187.596 C 120.801 187.096 120.501 186.696 120.301 186.196 C 120.201 186.096 120.201 185.896 120.201 185.796 C 120.101 185.296 119.901 184.896 119.801 184.396 C 119.301 183.196 118.901 181.896 118.401 180.696 C 118.201 180.096 118.001 179.596 117.701 178.996 C 117.701 179.096 117.501 179.296 117.501 179.396 C 117.401 179.596 117.201 179.796 117.101 179.996 C 115.901 181.796 114.701 183.596 113.601 185.396 C 113.001 186.296 112.501 187.296 112.001 188.196 C 111.701 188.696 111.501 189.096 111.201 189.596 C 111.101 189.796 111.001 189.996 110.901 190.196 C 110.801 190.596 110.401 190.996 110.101 191.296 C 109.701 191.796 109.401 192.296 109.001 192.796 C 109.001 192.796 109.301 192.796 109.401 192.796 C 109.501 192.796 109.701 192.796 109.801 192.796 C 110.101 192.796 110.401 192.796 110.701 192.796 C 111.301 192.796 111.801 192.796 112.401 192.696 C 112.601 192.696 112.901 192.596 113.101 192.596 C 113.401 192.596 113.701 192.596 114.001 192.696 C 114.601 192.696 115.101 192.796 115.701 192.796 C 115.901 192.996 116.201 192.996 116.401 192.996 Z" fill="#E0E3BD" stroke="black" stroke-width="0.5" stroke-miterlimit="10"/>
    <path d="M 155.101 112.596 C 136.801 97.996 116.101 95.596 94.701 105.196 C 60.401 120.596 51.201 166.195 71.801 188.896 C 74.701 192.096 76.901 195.796 79.901 198.996 C 82.601 201.896 83.501 204.996 83.301 208.896 C 83.001 214.296 82.501 219.796 83.301 225.696 L 100.901 226.496 L 101.201 213.996 L 108.001 214.196 L 108.001 214.296 C 108.001 214.396 108.001 214.496 108.001 214.596 C 108.001 214.696 108.001 214.896 108.001 214.996 C 108.001 215.196 108.001 215.396 108.001 215.496 C 108.001 215.696 108.001 215.896 108.001 216.096 C 108.001 216.296 108.001 216.596 108.001 216.796 C 108.001 217.096 108.001 217.296 108.001 217.596 C 108.001 217.896 108.001 218.196 108.001 218.496 C 108.001 218.796 108.001 219.096 108.001 219.396 C 108.001 219.696 108.001 219.996 108.001 220.296 C 108.001 220.596 108.001 220.896 108.001 221.196 C 108.001 221.496 108.001 221.796 108.001 222.096 C 108.001 222.396 108.001 222.596 108.001 222.896 C 108.001 223.096 108.001 223.396 108.001 223.696 C 108.001 223.896 108.001 224.196 108.001 224.396 C 108.001 224.596 108.001 224.796 108.001 224.996 C 108.001 225.096 108.001 225.296 108.001 225.496 C 108.001 225.596 108.001 225.696 108.001 225.796 C 108.001 226.096 107.901 226.396 107.901 226.796 C 108.001 226.796 108.001 226.796 108.101 226.796 L 108.201 226.796 L 108.301 226.796 C 108.401 226.796 108.601 226.796 108.701 226.796 C 109.001 226.796 109.301 226.796 109.601 226.796 C 110.801 226.796 111.901 226.896 113.101 226.896 C 114.501 226.996 116.001 226.996 117.501 227.096 C 118.801 227.196 120.201 227.196 121.501 227.296 C 122.301 227.296 123.101 227.396 124.001 227.396 C 124.101 227.396 124.201 227.396 124.301 227.396 C 124.501 227.396 124.601 227.396 124.801 227.296 C 124.801 226.996 124.901 226.596 124.901 226.296 L 124.901 226.196 C 124.901 226.096 124.901 225.896 125.001 225.796 C 125.001 225.496 125.101 225.196 125.101 224.996 C 125.101 224.796 125.101 224.596 125.101 224.396 C 125.101 224.196 125.101 223.996 125.101 223.896 C 125.101 223.696 125.101 223.596 125.101 223.396 C 125.101 223.196 125.101 222.996 125.101 222.796 C 125.101 222.596 125.101 222.296 125.101 221.996 C 125.101 221.696 125.101 221.396 125.101 221.196 C 125.101 220.896 125.101 220.596 125.101 220.296 C 125.101 219.996 125.101 219.696 125.101 219.396 C 125.101 219.096 125.101 218.796 125.101 218.496 C 125.101 218.196 125.101 217.896 125.101 217.596 C 125.101 217.396 125.101 217.096 125.101 216.796 C 125.101 216.596 125.101 216.396 125.101 216.196 C 125.101 215.996 125.101 215.896 125.101 215.696 C 125.101 215.596 125.101 215.496 125.101 215.396 L 125.101 215.296 L 131.901 215.496 L 131.601 227.896 C 132.701 227.896 150.101 228.696 150.101 228.696 C 150.101 225.096 150.101 221.496 150.101 217.796 C 150.101 216.096 150.101 214.396 150.101 212.696 C 150.101 212.196 150.101 211.696 150.001 211.296 C 150.001 210.096 150.001 208.896 150.201 207.796 C 150.401 206.596 150.801 205.296 151.601 204.296 C 151.801 204.096 152.001 203.796 152.201 203.596 C 152.501 203.296 152.701 203.096 153.001 202.796 C 153.501 202.296 154.001 201.696 154.501 201.196 C 155.501 200.096 156.501 199.096 157.501 197.996 C 158.501 196.896 159.401 195.896 160.401 194.796 C 161.401 193.696 162.301 192.696 163.201 191.596 C 164.101 190.496 165.101 189.496 166.001 188.396 C 166.901 187.296 167.801 186.296 168.701 185.196 C 169.201 184.696 169.601 184.096 170.101 183.596 C 173.501 179.396 175.901 174.696 176.701 169.296 C 180.301 146.196 173.201 126.996 155.101 112.596 Z M 98.401 210.696 C 98.201 210.696 98.001 210.696 97.701 210.696 C 97.601 210.696 97.501 210.696 97.401 210.696 C 97.401 211.196 97.401 211.696 97.401 212.196 C 97.401 213.196 97.301 214.296 97.301 215.296 C 97.201 217.396 97.101 219.596 97.101 221.696 L 88.201 221.296 C 88.201 220.396 88.301 219.496 88.301 218.596 C 88.401 216.596 88.501 214.596 88.501 212.496 C 88.601 210.396 88.701 208.196 88.701 206.096 C 88.701 205.296 88.801 204.496 88.801 203.696 C 88.801 203.296 88.701 202.896 88.701 202.596 C 88.701 202.196 88.601 201.796 88.601 201.396 C 88.601 201.196 88.501 201.096 88.501 200.896 C 88.401 200.796 88.401 200.596 88.301 200.496 C 88.201 200.196 88.101 199.896 87.901 199.596 C 87.601 198.996 87.301 198.396 87.001 197.796 C 86.701 197.196 86.301 196.696 85.901 196.096 C 85.701 195.796 85.401 195.396 85.101 195.096 C 80.901 189.996 76.901 184.696 72.901 179.396 C 67.201 171.595 66.201 162.496 67.301 153.296 C 69.801 132.596 80.601 117.596 99.901 109.896 C 119.001 102.296 137.101 105.496 152.301 119.196 C 167.801 133.096 173.501 150.796 168.501 171.496 C 167.301 176.796 163.901 180.596 160.501 184.396 C 156.301 189.095 152.001 193.696 147.701 198.296 C 147.501 198.496 147.301 198.596 147.201 198.796 C 147.201 198.896 147.201 198.896 147.101 198.996 C 147.001 199.096 147.001 199.196 146.901 199.296 C 146.801 199.496 146.601 199.696 146.501 199.896 C 146.401 199.996 146.401 200.096 146.301 200.196 C 146.201 200.296 146.201 200.296 146.201 200.396 C 146.001 200.796 145.801 201.196 145.601 201.596 C 145.201 202.496 145.001 203.496 144.801 204.496 C 144.701 204.996 144.701 205.496 144.701 205.996 C 144.701 206.196 144.701 206.496 144.701 206.696 C 144.701 206.796 144.701 206.896 144.701 207.096 C 144.701 207.296 144.701 207.496 144.701 207.696 C 144.701 207.996 144.701 208.396 144.701 208.696 C 144.701 209.296 144.701 209.796 144.701 210.396 C 144.701 211.496 144.701 212.696 144.701 213.796 C 144.701 214.896 144.701 216.096 144.701 217.196 C 144.701 218.296 144.701 219.496 144.701 220.596 C 144.701 221.196 144.701 221.696 144.701 222.296 C 144.701 222.596 144.701 222.896 144.701 223.196 C 144.701 223.296 144.701 223.396 144.701 223.496 L 144.701 223.596 C 144.601 223.696 144.501 223.596 144.501 223.596 C 144.401 223.596 144.201 223.596 144.101 223.596 C 143.601 223.596 143.001 223.596 142.501 223.496 C 140.301 223.396 138.101 223.296 135.901 223.196 C 136.001 221.296 136.001 219.396 136.101 217.596 C 136.101 216.996 136.201 216.296 136.201 215.696 C 136.201 214.896 136.201 214.196 136.201 213.396 C 136.201 213.096 136.201 212.896 136.201 212.596 L 134.901 212.396 C 134.401 212.296 133.901 212.196 133.401 212.196 C 132.301 212.096 131.301 211.996 130.201 211.896 C 129.101 211.796 128.001 211.796 126.901 211.796 C 125.801 211.796 124.701 211.796 123.601 211.796 C 122.701 211.796 121.701 211.796 120.801 211.796 L 120.401 223.296 L 111.501 222.896 L 111.901 211.596 C 111.401 211.496 110.801 211.396 110.301 211.296 C 109.201 211.096 108.201 210.996 107.101 210.896 C 106.001 210.796 104.901 210.796 103.801 210.696 C 102.701 210.696 101.601 210.696 100.501 210.596 C 100.001 210.596 99.401 210.596 98.901 210.596" fill="black"/>
    <path d="M 120.601 177.295 C 120.501 177.195 120.501 176.995 120.401 176.895 C 120.201 176.595 120.101 176.195 119.901 175.895 C 119.801 175.695 119.701 175.495 119.601 175.295 C 119.501 175.095 119.401 174.995 119.301 174.795 C 118.901 174.195 118.601 173.495 118.201 172.895 C 118.001 172.595 117.901 172.295 117.701 171.895 C 117.701 171.795 117.601 171.695 117.601 171.695 C 117.601 171.595 117.501 171.495 117.501 171.495 C 117.401 171.495 117.401 171.495 117.401 171.595 C 117.401 171.695 117.301 171.695 117.301 171.795 C 117.301 171.895 117.201 171.995 117.201 172.095 C 117.101 172.295 117.001 172.495 116.901 172.595 C 116.501 173.195 116.101 173.895 115.801 174.495 C 115.401 175.095 115.001 175.795 114.701 176.395 C 114.201 177.195 113.801 177.995 113.301 178.895 C 113.101 179.195 113.001 179.495 112.801 179.695 C 112.601 179.995 112.401 180.295 112.301 180.595 C 112.101 180.895 111.901 181.195 111.701 181.595 C 111.501 181.895 111.301 182.295 111.101 182.595 C 110.901 182.995 110.701 183.295 110.501 183.695 C 110.301 184.095 110.101 184.395 109.901 184.795 C 109.701 185.195 109.501 185.595 109.301 185.895 C 109.101 186.295 108.901 186.695 108.701 186.995 C 108.501 187.395 108.301 187.695 108.101 188.095 C 107.901 188.495 107.701 188.795 107.501 189.195 C 107.301 189.595 107.101 189.895 106.901 190.295 C 106.701 190.595 106.501 190.995 106.301 191.295 C 106.101 191.595 105.901 191.895 105.801 192.195 C 105.601 192.495 105.501 192.795 105.301 193.095 C 105.201 193.395 105.001 193.595 104.901 193.895 C 104.801 194.095 104.601 194.295 104.501 194.595 C 104.401 194.795 104.301 194.995 104.201 195.195 C 104.101 195.295 104.001 195.495 104.001 195.595 C 103.901 195.695 103.901 195.795 103.801 195.895 L 103.701 195.995 L 103.801 195.995 C 104.401 195.995 104.901 195.995 105.501 196.095 C 105.601 196.095 105.701 196.095 105.901 196.095 C 106.001 196.095 106.201 196.095 106.301 196.095 C 106.401 196.095 106.401 196.095 106.501 196.095 C 106.601 196.095 106.701 196.095 106.801 196.095 C 106.901 196.095 107.001 196.095 107.201 196.095 C 107.301 196.095 107.501 196.095 107.601 196.095 C 107.801 196.095 108.001 196.095 108.101 196.095 C 108.301 196.095 108.501 196.095 108.701 196.095 C 108.901 196.095 109.101 196.095 109.301 196.095 C 109.501 196.095 109.801 196.095 110.001 196.095 C 110.201 196.095 110.501 196.095 110.701 196.095 C 111.001 196.095 111.201 196.095 111.501 196.095 C 111.801 196.095 112.001 196.095 112.301 196.095 C 112.601 196.095 112.901 196.095 113.101 196.095 C 113.401 196.095 113.701 196.095 114.001 196.095 C 114.301 196.095 114.601 196.095 114.901 196.095 C 115.201 196.095 115.501 196.095 115.801 196.095 C 116.101 196.095 116.401 196.095 116.701 196.095 C 117.001 196.095 117.301 196.095 117.601 196.095 C 117.901 196.095 118.201 196.095 118.501 196.095 C 118.801 196.095 119.101 196.095 119.401 196.095 C 119.701 196.095 120.001 196.095 120.301 196.095 C 120.601 196.095 120.901 196.095 121.101 196.095 C 121.401 196.095 121.601 196.095 121.901 196.095 C 122.201 196.095 122.401 196.095 122.701 196.095 C 122.901 196.095 123.201 196.095 123.401 196.095 C 123.601 196.095 123.901 196.095 124.101 196.095 C 124.301 196.095 124.501 196.095 124.701 196.095 C 124.901 196.095 125.101 196.095 125.301 196.095 C 125.501 196.095 125.601 196.095 125.801 196.095 L 129.401 196.195 C 129.501 196.195 129.501 196.195 129.501 196.195 C 129.301 195.595 129.001 195.095 128.801 194.495 C 128.201 193.095 120.701 177.495 120.601 177.295 C 120.601 177.395 120.601 177.395 120.601 177.295 Z M 110.301 192.395 C 112.701 188.295 114.901 184.595 117.401 180.295 C 119.101 184.895 120.501 188.495 122.201 192.895 C 118.101 192.695 114.701 192.495 110.301 192.395 Z" fill="black"/>
    <path d="M 53.6 115.296 C 53.6 115.796 53.7 116.196 53.7 116.596 L 53.6 115.296 Z M 53.6 115.296 C 53.6 115.796 53.7 116.196 53.7 116.596 L 53.6 115.296 Z" fill="#E0E3BD"/>
    <path d="M 53.6 115.296 C 53.6 115.796 53.7 116.196 53.7 116.596 M 53.6 115.296 C 53.6 115.796 53.7 116.196 53.7 116.596 L 53.6 115.296 Z" stroke="black" stroke-width="2" stroke-miterlimit="10"/>
    <path d="M 265.3 306.296 C 260.2 302.196 256.4 296.896 251.6 292.296 C 251.9 287.196 252.5 282.596 252.5 277.996 C 252.4 265.396 253.2 252.796 252.2 240.196 C 251.6 232.496 253.7 225.096 255.8 217.696 C 259.9 203.596 257.6 189.096 255.5 175.196 C 254 165.296 253.8 155.696 254.5 145.896 C 255.2 137.296 255.3 128.696 256 120.096 C 256.9 107.896 258 95.896 254.9 83.596 C 252.2 73.196 251.6 62.296 247.4 52.296 C 244.1 44.496 244.1 44.496 233.9 30.996 C 224.8 21.396 223.4 21.296 215.6 16.596 C 209.6 12.996 203.7 9.596 196.4 8.896 C 187.1 7.996 178.5 3.896 169.3 2.396 C 153.3 -0.204 137.5 1.196 121.7 3.596 C 100.5 6.896 79.6 10.996 63.3 27.196 C 55.6 34.896 47.7 42.196 44.4 52.896 C 43.5 55.896 41.5 58.496 40 61.196 C 33.1 72.896 34.7 78.196 33.7 93.396 C 34.3 94.496 32.3 101.096 31.6 102.896 C 30.7 113.096 30.6 106.596 30.7 110.996 C 31 124.296 31.1 137.596 31.2 150.796 C 31.3 162.796 31.8 174.796 29.6 186.596 C 27.2 199.096 27.4 211.696 27.3 224.296 C 27.3 227.096 27.4 229.996 26.7 232.696 C 24.6 242.096 25.1 251.496 25.6 260.896 C 26.3 273.696 25.7 286.396 27.2 299.496 C 19.8 305.296 12.5 311.096 5.1 316.696 C 2.5 318.596 1 320.696 1 324.096 C 1.2 338.196 1.2 352.296 1.3 366.396 C 1.3 370.196 3.1 372.296 7 372.596 C 25.1 373.696 43.1 374.796 61.1 375.996 C 84.5 377.496 107.8 378.896 131.2 380.396 C 157.7 382.096 184.2 383.896 210.7 385.596 C 214.3 385.796 217.6 384.996 220.7 383.096 C 234.6 374.696 248.6 366.296 262.6 358.096 C 266 356.096 267.3 353.496 267.3 349.596 C 267.4 337.296 267.7 324.996 268 312.796 C 268 310.296 267.5 307.996 265.3 306.296 Z M 35.2 243.096 C 36.4 234.696 37.5 226.396 37.3 217.896 C 37 206.896 38.3 196.096 39.9 185.296 C 42.1 170.296 41.3 155.196 41 140.096 C 40.9 134.596 40.8 129.096 40.9 123.696 C 40.9 122.296 41 120.896 41.1 119.496 C 41.2 118.696 41.3 117.896 41.3 116.996 C 41.3 116.596 41.6 116.296 41.9 115.996 C 42.3 115.496 42.8 114.996 43.2 114.496 C 43.3 114.396 43.4 114.296 43.6 114.196 C 43.7 114.196 43.9 114.196 44 114.296 C 45.8 115.096 48.9 117.996 49 118.196 C 49 118.296 52.6 120.996 52.6 121.096 C 52.7 121.196 50.4 126.196 50.4 126.396 C 54.7 126.396 53.6 124.996 57.1 118.696 C 57.3 118.296 53.6 115.796 53.6 115.296 C 53 114.696 52.8 113.896 52.5 113.196 C 52.2 112.296 51.7 111.496 51.2 110.796 C 50.9 110.396 50.6 110.096 50.3 109.696 C 50 109.396 49.7 109.096 49.4 108.796 C 49.2 108.596 49.1 108.396 49.1 108.096 C 49 107.696 48.8 107.396 48.7 106.996 C 48.3 106.096 47.9 105.096 47.6 104.096 C 46.9 102.196 46.3 100.196 45.7 98.196 C 45.1 96.196 44.5 94.196 43.8 92.196 C 43.4 91.096 43 90.096 42.6 88.996 C 43.3 79.596 45.1 70.596 51.3 62.996 C 52.7 61.196 53.6 58.896 54.3 56.796 C 57.1 47.596 63.3 40.996 70.4 35.096 C 74.8 31.396 78.8 26.996 83.9 24.496 C 84 24.396 84.4 24.696 84.5 24.696 C 84.7 24.796 84.9 24.896 85.1 24.996 C 85.5 25.296 85.8 25.596 86 25.996 C 86.4 26.496 86.5 27.196 86.8 27.696 C 87 28.196 87.2 28.796 87.4 29.296 C 87.8 30.396 88.2 31.396 88.5 32.496 C 88.6 32.696 88.6 32.796 88.7 32.896 C 88.7 32.996 88.8 33.096 88.8 33.096 C 88.8 33.096 89 33.196 89.1 33.196 C 89.5 33.296 89.9 33.496 90.3 33.596 C 90.4 33.596 89.9 36.296 89.9 36.496 L 89.9 36.996 C 89.9 37.396 89.8 37.896 89.8 38.296 C 89.7 39.196 89.7 40.096 89.6 40.996 C 89.6 41.296 89.5 41.696 89.6 41.996 C 89.7 42.296 89.8 42.496 89.9 42.796 C 90.7 44.396 91.1 50.396 91.1 50.396 C 91.1 50.396 92.4 46.996 92.3 46.796 C 92.2 46.496 92.2 46.296 92.1 45.996 C 92 45.496 91.9 44.896 91.8 44.396 C 91.7 43.696 91.6 42.996 91.5 42.196 C 91.5 41.896 91.4 41.696 91.4 41.396 C 91.4 41.196 91.3 41.096 91.4 40.896 C 91.5 40.596 91.6 40.296 91.8 40.096 C 91.9 39.796 92.1 39.496 92.2 39.196 C 92.2 39.196 92.8 39.296 92.9 39.396 C 93.1 39.496 93.3 39.596 93.5 39.596 C 94.1 39.696 94.6 39.896 95.1 40.196 C 95.3 40.296 95.5 40.396 95.7 40.596 C 95.8 40.796 95.9 40.996 96 41.196 C 96.5 42.496 97 43.896 97.6 45.196 C 97.7 45.396 97.8 45.696 98 45.896 C 98.2 46.096 98.4 46.196 98.6 46.296 C 99.9 47.096 101.3 47.896 102.6 48.696 C 102 47.696 101.1 46.896 100.3 45.896 C 99.1 44.396 98.3 42.596 98 40.696 C 97.9 40.296 97.9 39.896 97.9 39.496 C 96.9 38.796 95.9 38.196 94.9 37.496 C 94.5 37.196 94 36.996 93.7 36.696 C 93.6 36.596 93.5 36.396 93.5 36.196 C 93.4 35.896 93.3 35.696 93.2 35.396 C 92.8 34.296 92.5 33.196 92.1 32.196 C 92 31.896 91.9 31.496 91.6 31.396 C 91.5 31.296 91.3 31.296 91.1 31.196 C 90.8 30.996 90.7 30.596 90.6 30.296 C 90.5 29.896 90.4 29.396 90.3 28.996 C 90.2 28.696 90.1 28.296 90.1 27.896 L 90.1 27.496 C 90 26.796 89.8 26.096 89.8 25.396 C 89.7 23.596 90.1 21.796 91.1 20.196 C 121.6 15.696 152.4 11.996 179.2 35.496 L 179.2 49.496 C 179.2 49.896 179.2 50.396 179 50.796 C 178.9 50.896 178.9 50.996 178.8 51.196 C 178.7 51.496 178.6 51.796 178.4 51.996 C 178.1 52.496 177.8 52.996 177.4 53.596 C 177 54.196 176.6 54.796 176.4 55.496 C 176.5 55.396 176.6 55.396 176.7 55.296 L 177 54.996 C 177.2 54.796 177.5 54.596 177.7 54.496 C 178.2 54.196 178.6 53.796 179 53.396 C 179.2 53.196 179.3 52.996 179.5 52.696 C 179.7 52.396 179.9 51.896 180.1 51.596 C 180.4 51.296 180.6 50.796 180.7 50.296 C 180.8 50.096 180.9 49.996 180.9 49.796 C 181 49.596 181 49.396 181.1 49.096 C 181.2 48.596 181.3 48.196 181.4 47.696 C 181.8 45.696 181.9 43.696 182.2 41.696 C 182.3 40.896 182.5 40.196 182.7 39.396 C 191 45.896 199.6 51.596 200.8 62.996 C 201.8 72.596 203.5 81.996 206.2 91.296 C 207 93.996 207.7 96.796 207.7 99.596 C 207.7 118.296 208.6 136.896 205.6 155.496 C 204 165.396 204.1 175.696 204 185.796 C 204 196.596 203.4 207.396 202.4 218.096 C 201.4 228.596 201.4 238.996 204 249.196 C 205.4 254.596 204.5 259.996 203.9 265.496 C 202.7 276.196 202.2 286.996 201.5 297.796 C 201.3 300.396 201.4 303.096 200.3 305.896 C 145.9 302.896 91.6 299.896 37 296.796 C 37 296.796 36.8 295.096 36.8 294.996 C 36.7 294.296 36.6 293.596 36.5 292.896 C 36.3 291.496 36.2 290.196 36.1 288.796 C 36 287.396 36.1 286.096 36.2 284.796 L 36.2 284.296 C 36.2 283.796 36.3 283.196 36.4 282.796 C 36.5 282.296 36.6 281.696 36.7 281.196 C 37 279.996 37.3 278.796 37.8 277.596 C 37.9 277.396 37.9 277.296 38 277.096 C 38.1 276.996 38.3 276.896 38.5 276.796 C 41.1 275.796 43.6 274.796 46.2 273.796 C 46.5 273.696 46.6 273.296 46.8 272.996 C 47 272.696 47.2 272.396 47.5 272.096 C 47.7 271.896 48 271.696 48.2 271.496 C 48.6 271.096 48.8 270.596 49 270.096 C 49.4 269.296 49.8 268.396 50.1 267.596 C 50.3 267.196 50.5 266.796 50.6 266.496 C 50.6 266.396 50.6 266.296 50.7 266.196 C 51 265.696 51.7 265.296 52.1 264.996 C 53 264.296 53.8 263.496 54.4 262.596 C 53.6 262.996 53 263.496 52.2 263.996 C 51.9 264.196 51.5 264.396 51.1 264.496 C 51 264.496 50.9 264.496 50.7 264.596 C 50.6 264.596 50.6 264.696 50.6 264.696 C 50.4 264.896 50.2 265.196 50 265.496 C 49.6 266.096 49.2 266.696 48.8 267.296 C 48.3 267.996 47.8 268.696 47.3 269.496 C 46.8 270.296 46.5 271.096 45.7 271.496 C 45.5 271.596 45.2 271.696 44.9 271.796 C 42.4 272.596 39.8 273.496 37.3 274.296 C 36.8 274.496 36.3 274.596 35.8 274.996 L 35.8 273.996 C 35.9 273.496 35.8 272.996 35.9 272.596 L 35.9 270.596 C 35.9 269.196 35.8 267.896 35.8 266.496 C 35.7 263.796 35.5 261.096 35.4 258.496 C 34.6 253.496 34.5 248.296 35.2 243.096 Z M 33 307.996 C 34.4 306.896 36.2 307.196 37.8 307.296 C 69.9 309.096 102 310.796 134.1 312.596 C 155.1 313.796 176.1 314.996 197.2 316.096 C 198.2 316.196 199.2 316.396 200.3 316.496 C 202.3 320.496 203.9 324.596 205.1 329.596 C 143.8 325.596 83 321.696 21.1 317.696 C 25.3 313.496 29.3 310.896 33 307.996 Z M 208.3 374.896 C 203.8 375.596 199.4 374.996 195.3 374.496 C 195.1 374.496 194.9 374.296 194.8 374.196 C 194.6 374.096 194.5 373.996 194.3 373.796 C 194 373.596 193.7 373.296 193.4 372.996 C 192.8 372.396 192.4 371.596 191.8 370.996 C 191.6 370.796 191.3 370.596 191.2 370.396 C 191 369.996 190.9 369.596 190.8 369.196 C 190.8 369.096 190.8 368.996 190.7 368.796 C 190.6 368.696 190.5 368.596 190.5 368.396 C 190 367.796 189.6 367.196 189.3 366.496 C 189.2 366.296 189.2 365.996 189.2 365.796 C 189.3 365.196 189 364.596 188.8 364.096 C 188.7 363.596 188.6 363.196 188.5 362.696 C 188.5 362.596 188.4 362.396 188.3 362.296 C 188.1 361.996 187.8 361.796 187.5 361.596 C 186.8 360.796 186.1 360.096 185.4 359.396 C 185.1 359.096 184.8 358.896 184.5 358.696 C 184.7 358.796 184.8 359.096 185 359.296 C 185.1 359.496 185.3 359.696 185.5 359.896 C 185.8 360.296 186.1 360.696 186.3 361.296 C 186.3 361.496 186.5 361.796 186.6 361.996 C 186.9 362.596 187.1 363.096 187.2 363.696 C 187.4 364.496 187.5 365.296 187.5 366.096 C 187.6 366.796 187.6 367.596 187.7 368.296 C 187.7 368.296 188.2 368.496 188.3 368.496 C 188.4 368.596 188.4 368.796 188.4 368.996 C 188.6 369.496 188.9 369.996 189.2 370.496 C 189.3 370.696 189.4 370.896 189.5 371.096 L 189.5 372.796 C 189.5 372.996 189.5 373.296 189.4 373.496 C 189.2 373.796 188.8 373.996 188.9 374.396 C 188.5 374.396 187.9 374.496 187.5 374.396 C 187.4 374.396 187.3 374.396 187.2 374.296 C 186.5 374.196 185.9 374.196 185.2 374.196 C 183.9 374.096 182.6 373.996 181.3 373.996 C 170 373.296 158.7 372.496 147.4 371.796 C 136.1 371.096 124.8 370.296 113.5 369.596 C 102.2 368.896 90.9 368.096 79.6 367.396 C 68.3 366.696 57 365.896 45.7 365.196 C 40 364.796 34.4 364.496 28.7 364.096 C 25.9 363.896 23 363.696 20.2 363.596 C 18.8 363.496 17.4 363.396 16 363.296 C 15.7 363.296 11.9 363.096 11.9 362.996 L 11.9 353.396 L 12 353.296 C 12.1 353.196 12.1 353.196 12.2 353.096 C 12.3 352.896 12.4 352.796 12.5 352.596 C 12.8 352.196 13 351.896 13.3 351.496 C 13.6 351.096 14 350.696 14.3 350.296 C 14.4 350.096 14.5 349.996 14.6 349.796 C 14.8 349.596 15.1 349.396 15.3 349.296 C 15.6 349.096 15.9 348.996 16.2 348.796 C 16.8 348.496 17.4 348.196 18.1 347.996 C 18.6 347.796 19.1 347.696 19.6 347.796 C 20 347.896 20.4 348.096 20.7 348.396 C 21.8 349.196 23 349.996 24.3 350.296 C 24.6 350.396 24.7 350.096 24.9 349.996 C 25.4 349.496 26 349.096 26.5 348.796 C 26.6 348.696 26.8 348.596 26.9 348.596 C 27.2 348.396 27.5 348.296 27.8 348.096 C 29 347.596 30.3 347.496 31.6 347.396 C 30.7 347.096 29.7 346.896 28.6 346.796 C 28 346.796 27.4 346.796 26.9 347.096 C 26.8 347.196 26.7 347.296 26.7 347.296 C 26.6 347.396 26.4 347.496 26.3 347.596 L 25.4 348.196 C 25.3 348.196 25.3 348.296 25.2 348.296 C 25 348.396 24.8 348.496 24.7 348.696 C 24.6 348.796 24.3 348.996 24.1 348.996 C 24 348.996 23.8 348.896 23.6 348.796 C 23.5 348.696 23.3 348.696 23.2 348.596 C 22.9 348.396 22.6 348.196 22.4 348.096 C 21.6 347.496 20.8 346.696 20 345.996 C 19.9 345.896 19.8 345.896 19.7 345.796 L 19.3 345.796 C 19 345.896 18.7 345.896 18.4 345.996 C 18.2 345.996 18.1 346.096 17.9 346.096 L 17.6 346.096 C 17.3 346.096 17 346.196 16.7 346.196 C 16.3 346.296 15.8 346.396 15.4 346.496 C 14.1 346.796 12.9 347.096 11.6 347.496 L 11.6 327.396 C 77.2 331.596 142.6 335.896 208.3 340.096 L 208.3 374.896 Z M 189.6 32.396 L 186.7 28.296 L 185.4 28.296 C 185.2 28.296 185.1 28.096 184.9 28.096 L 181.9 25.696 C 179.9 24.096 177.8 22.596 175.7 21.196 C 171.5 18.296 167.1 15.596 162.4 13.396 C 160.3 13.196 158.6 12.196 156.2 10.696 C 158.8 11.096 160.6 11.396 162.4 11.696 C 168.6 11.596 174.4 13.596 180.3 15.396 C 184.9 16.796 189.5 18.296 194.3 18.696 C 201.6 19.196 207.3 23.096 213 26.996 C 217.5 30.096 219 35.196 220.4 39.996 C 221.4 43.696 217.9 45.296 215.7 47.396 L 215.7 47.796 C 215.7 47.996 215.8 48.196 215.8 48.396 C 215.9 48.796 216.1 49.096 216.2 49.496 C 216.6 50.296 217 50.996 217.3 51.796 C 217.5 52.196 217.6 52.596 217.7 52.996 C 217.8 53.396 217.9 53.896 217.8 54.296 C 217.8 54.496 217.5 54.696 217.4 54.796 C 216.8 55.596 216.1 56.396 215.5 57.096 L 219.7 55.696 C 220 55.396 220.2 55.096 220.5 54.896 C 220.8 54.696 221.1 54.396 221.4 54.196 C 221.1 53.996 221.1 53.896 221.1 53.596 C 221 53.196 220.9 52.696 220.8 52.296 C 220.7 51.896 220.6 51.496 220.5 51.096 C 220.5 50.896 220.4 50.696 220.4 50.496 C 220.4 50.396 220.2 49.996 220.3 49.896 C 221.4 47.696 223.8 47.296 225 45.896 C 232.4 46.396 236.5 50.296 238.6 56.996 C 241.3 65.496 242 74.496 244.5 82.996 C 248.8 98.196 246.1 113.196 245 128.296 C 244.4 136.996 245.3 145.896 243.6 154.496 C 242.9 157.796 242.1 160.896 239.5 162.796 C 238.6 166.496 239.4 169.896 239.2 173.296 C 238.8 174.296 237.9 175.096 237.1 175.796 C 236.4 176.496 235.6 177.096 234.8 177.696 C 234.8 177.696 234.8 177.696 234.7 177.796 C 234 178.296 233.2 178.796 232.6 179.396 C 232.3 179.696 232 179.996 231.7 180.296 C 231.4 180.596 231 180.796 230.6 181.096 C 229.9 181.496 229.2 181.996 228.5 182.496 C 228.3 182.696 228 182.796 227.9 183.096 L 227.5 183.496 C 227.4 183.596 227.2 183.796 227.1 183.896 C 227 183.996 226.9 184.096 226.9 184.196 C 226.9 184.296 227 184.296 227 184.396 C 227.5 184.996 227.7 185.896 228.1 186.596 C 228.2 186.796 228.4 186.996 228.5 187.296 C 228.6 187.396 228.6 187.496 228.6 187.696 C 228.8 188.096 228.9 188.496 228.9 188.896 L 228.9 189.496 C 228.8 189.896 229 190.296 228.7 190.596 C 228.3 190.996 227.8 191.396 227.4 191.796 C 227.2 191.996 227 192.196 226.8 192.296 C 226.4 192.696 225.9 192.996 225.5 193.396 C 225.4 193.496 225.3 193.496 225.3 193.596 C 225.2 193.696 225.2 193.896 225.3 194.096 C 225.6 196.296 225.9 198.596 226.2 200.796 C 226.2 201.096 226.3 201.496 226.3 201.896 C 226.2 202.196 226.2 202.496 226.2 202.896 C 226.2 203.796 226.3 204.696 226.4 205.496 L 228.3 196.196 C 229.7 193.596 233.2 193.096 234.1 190.496 C 234.1 188.196 232 187.596 231.3 185.596 C 235 182.896 238.8 180.096 243 176.996 C 243.1 174.996 243.3 172.596 243.4 170.096 C 244.8 170.396 245 171.496 245.1 172.396 C 245.8 185.896 249.1 199.396 246.2 212.996 C 245.2 217.896 243.5 222.596 242.9 227.496 C 241.3 241.296 243.4 254.996 243.1 268.696 C 242.9 275.596 243.8 282.596 241.5 289.796 C 231.5 294.996 221.4 299.696 210.5 304.896 C 211 298.796 211.2 293.396 211.8 287.996 C 212.7 279.296 212.3 270.396 214.2 261.796 C 215 258.096 214.7 254.096 213.8 250.396 C 210.7 238.396 210.8 226.396 212.3 214.296 C 213.9 201.096 213.5 187.796 213.7 174.496 C 213.9 161.196 215.9 148.096 216.6 134.796 C 217.3 120.896 218.5 106.896 216.1 93.196 C 214.2 82.296 211.1 71.596 209.8 60.496 C 208.8 52.296 204.7 45.496 198.3 40.196 C 195.9 38.196 193.7 36.096 191.3 33.996 C 190.7 33.496 190.2 32.996 189.6 32.396 C 189.5 32.296 189.4 32.296 189.4 32.196 C 189.2 31.996 189.2 31.796 189.1 31.496 L 189.6 32.396 Z M 242.2 305.696 C 242.2 305.696 242.3 305.796 242.4 305.796 C 242.5 305.796 242.5 305.796 242.6 305.896 C 242.8 305.896 242.9 305.996 243 306.096 C 243.2 306.296 243.3 306.496 243.4 306.696 C 243.4 306.996 243.5 307.296 243.5 307.696 C 243.5 308.396 243.6 309.196 243.5 309.896 C 243.5 310.296 243.5 310.596 243.4 310.996 L 243.4 311.396 C 243.4 311.596 243.6 311.596 243.8 311.696 C 244.1 311.796 244.3 312.096 244.4 312.296 C 244.5 312.496 244.6 312.696 244.5 312.896 C 244.5 313.096 244.4 313.296 244.3 313.396 C 244.1 313.796 243.8 313.996 243.4 314.196 C 242.5 314.596 241.6 315.096 240.8 315.596 C 232.8 319.796 224.8 324.096 216.4 328.496 C 214.2 324.396 212.7 320.296 211.2 315.596 C 222.3 310.396 233.3 305.196 244.4 299.896 C 248.1 302.196 250.4 305.696 253.1 308.696 C 251.6 310.396 249.7 310.896 247.8 311.796 C 247.6 311.696 247.4 311.596 247.2 311.496 C 247 311.396 246.7 311.196 246.5 311.096 C 246.3 310.996 246.1 310.796 245.8 310.796 C 245.5 310.696 245.1 310.496 244.9 310.296 C 244.8 310.196 244.8 310.096 244.8 309.896 C 244.7 309.496 244.6 309.196 244.6 308.796 C 244.5 308.296 244.4 307.896 244.2 307.396 C 244.1 306.996 243.9 306.496 243.8 306.096 L 242.2 305.696 Z M 249 332.796 L 249 331.296 C 249 330.996 249 330.596 249.2 330.296 C 249.3 330.096 249.3 329.996 249.4 329.896 C 249.4 329.796 249.5 329.796 249.5 329.696 C 249.8 329.196 250.1 328.696 250.5 328.196 C 252.2 326.196 253.2 323.896 253 321.096 C 254.1 320.296 255.2 319.396 257.1 319.496 C 257.8 329.296 257.3 339.496 257 349.896 C 244.4 357.396 231.8 364.896 218.7 372.596 L 218.7 338.696 C 228.9 333.296 239 327.996 249.2 322.696 C 249.5 323.096 249.7 323.596 249.8 324.096 C 249.9 324.396 249.8 324.796 249.8 325.096 C 249.8 325.296 249.7 325.396 249.6 325.596 C 249.6 325.696 249.5 325.796 249.4 325.996 C 249.3 326.096 249.1 326.296 249 326.396 C 248.8 326.496 248.7 326.696 248.5 326.896 C 248.3 327.096 248.1 327.396 248 327.596 C 247.9 327.696 247.8 327.796 247.8 327.996 C 247.7 328.096 247.6 328.296 247.6 328.496 C 247.3 328.996 247 329.596 246.6 330.096 C 246.4 330.296 246.2 330.596 246.2 330.896 C 246.2 330.996 246.2 331.096 246.3 331.196 L 246.3 335.096 C 246.3 335.796 246.4 336.396 246.4 337.096 C 246.4 337.596 246.3 338.296 246 338.696 L 245.7 338.996 C 245.7 338.996 245.6 339.096 245.6 339.196 C 245.6 339.296 245.5 339.296 245.4 339.396 C 244.7 340.196 243.8 340.796 242.9 341.396 C 243.5 341.296 244.1 341.196 244.6 340.896 C 245 340.696 245.4 340.396 245.9 340.196 C 246 340.196 246.1 339.996 246.3 339.996 C 246.3 339.996 246.3 339.996 246.4 339.996 C 246.6 339.696 246.7 339.396 246.9 338.996 C 247 338.896 247 338.696 247.1 338.496 C 247.2 338.296 247.2 338.196 247.3 337.996 C 247.3 337.896 247.4 337.796 247.4 337.696 C 247.5 337.296 247.6 336.896 247.8 336.496 C 247.9 336.296 247.9 336.096 248 335.896 C 248 335.796 248.1 335.696 248.1 335.496 C 248.1 335.296 248.1 335.096 248.2 334.996 C 248.2 334.796 248.3 334.596 248.5 334.496 C 248.6 334.496 248.6 334.496 248.7 334.496 L 249 332.796 Z" fill="#E0E3BD"/>
    <path d="M 189.6 32.396 L 186.7 28.296 L 185.4 28.296 C 185.2 28.296 185.1 28.096 184.9 28.096 L 181.9 25.696 C 179.9 24.096 177.8 22.596 175.7 21.196 C 171.5 18.296 167.1 15.596 162.4 13.396 C 160.3 13.196 158.6 12.196 156.2 10.696 C 158.8 11.096 160.6 11.396 162.4 11.696 C 168.6 11.596 174.4 13.596 180.3 15.396 C 184.9 16.796 189.5 18.296 194.3 18.696 C 201.6 19.196 207.3 23.096 213 26.996 C 217.5 30.096 219 35.196 220.4 39.996 C 221.4 43.696 217.9 45.296 215.7 47.396 L 215.7 47.796 C 215.7 47.996 215.8 48.196 215.8 48.396 C 215.9 48.796 216.1 49.096 216.2 49.496 C 216.6 50.296 217 50.996 217.3 51.796 C 217.5 52.196 217.6 52.596 217.7 52.996 C 217.8 53.396 217.9 53.896 217.8 54.296 C 217.8 54.496 217.5 54.696 217.4 54.796 C 216.8 55.596 216.1 56.396 215.5 57.096 L 219.7 55.696 C 220 55.396 220.2 55.096 220.5 54.896 C 220.8 54.696 221.1 54.396 221.4 54.196 C 221.1 53.996 221.1 53.896 221.1 53.596 C 221 53.196 220.9 52.696 220.8 52.296 C 220.7 51.896 220.6 51.496 220.5 51.096 C 220.5 50.896 220.4 50.696 220.4 50.496 C 220.4 50.396 220.2 49.996 220.3 49.896 C 221.4 47.696 223.8 47.296 225 45.896 C 232.4 46.396 236.5 50.296 238.6 56.996 C 241.3 65.496 242 74.496 244.5 82.996 C 248.8 98.196 246.1 113.196 245 128.296 C 244.4 136.996 245.3 145.896 243.6 154.496 C 242.9 157.796 242.1 160.896 239.5 162.796 C 238.6 166.496 239.4 169.896 239.2 173.296 C 238.8 174.296 237.9 175.096 237.1 175.796 C 236.4 176.496 235.6 177.096 234.8 177.696 C 234.8 177.696 234.8 177.696 234.7 177.796 C 234 178.296 233.2 178.796 232.6 179.396 C 232.3 179.696 232 179.996 231.7 180.296 C 231.4 180.596 231 180.796 230.6 181.096 C 229.9 181.496 229.2 181.996 228.5 182.496 C 228.3 182.696 228 182.796 227.9 183.096 L 227.5 183.496 C 227.4 183.596 227.2 183.796 227.1 183.896 C 227 183.996 226.9 184.096 226.9 184.196 C 226.9 184.296 227 184.296 227 184.396 C 227.5 184.996 227.7 185.896 228.1 186.596 C 228.2 186.796 228.4 186.996 228.5 187.296 C 228.6 187.396 228.6 187.496 228.6 187.696 C 228.8 188.096 228.9 188.496 228.9 188.896 L 228.9 189.496 C 228.8 189.896 229 190.296 228.7 190.596 C 228.3 190.996 227.8 191.396 227.4 191.796 C 227.2 191.996 227 192.196 226.8 192.296 C 226.4 192.696 225.9 192.996 225.5 193.396 C 225.4 193.496 225.3 193.496 225.3 193.596 C 225.2 193.696 225.2 193.896 225.3 194.096 C 225.6 196.296 225.9 198.596 226.2 200.796 C 226.2 201.096 226.3 201.496 226.3 201.896 C 226.2 202.196 226.2 202.496 226.2 202.896 C 226.2 203.796 226.3 204.696 226.4 205.496 L 228.3 196.196 C 229.7 193.596 233.2 193.096 234.1 190.496 C 234.1 188.196 232 187.596 231.3 185.596 C 235 182.896 238.8 180.096 243 176.996 C 243.1 174.996 243.3 172.596 243.4 170.096 C 244.8 170.396 245 171.496 245.1 172.396 C 245.8 185.896 249.1 199.396 246.2 212.996 C 245.2 217.896 243.5 222.596 242.9 227.496 C 241.3 241.296 243.4 254.996 243.1 268.696 C 242.9 275.596 243.8 282.596 241.5 289.796 C 231.5 294.996 221.4 299.696 210.5 304.896 C 211 298.796 211.2 293.396 211.8 287.996 C 212.7 279.296 212.3 270.396 214.2 261.796 C 215 258.096 214.7 254.096 213.8 250.396 C 210.7 238.396 210.8 226.396 212.3 214.296 C 213.9 201.096 213.5 187.796 213.7 174.496 C 213.9 161.196 215.9 148.096 216.6 134.796 C 217.3 120.896 218.5 106.896 216.1 93.196 C 214.2 82.296 211.1 71.596 209.8 60.496 C 208.8 52.296 204.7 45.496 198.3 40.196 C 195.9 38.196 193.7 36.096 191.3 33.996 C 190.7 33.496 190.2 32.996 189.6 32.396 Z M 189.6 32.396 C 189.5 32.296 189.4 32.296 189.4 32.196 C 189.2 31.996 189.2 31.796 189.1 31.496 L 189.6 32.396 Z M 243.8 306.096 C 243.9 306.496 244.1 306.996 244.2 307.396 C 244.4 307.896 244.5 308.296 244.6 308.796 C 244.6 309.196 244.7 309.496 244.8 309.896 C 244.8 310.096 244.8 310.196 244.9 310.296 C 245.1 310.496 245.5 310.696 245.8 310.796 C 246.1 310.796 246.3 310.996 246.5 311.096 C 246.7 311.196 247 311.396 247.2 311.496 C 247.4 311.596 247.6 311.696 247.8 311.796 C 249.7 310.896 251.6 310.396 253.1 308.696 C 250.4 305.696 248.1 302.196 244.4 299.896 C 233.3 305.196 222.3 310.396 211.2 315.596 C 212.7 320.296 214.2 324.396 216.4 328.496 C 224.8 324.096 232.8 319.796 240.8 315.596 C 241.6 315.096 242.5 314.596 243.4 314.196 C 243.8 313.996 244.1 313.796 244.3 313.396 C 244.4 313.296 244.5 313.096 244.5 312.896 C 244.6 312.696 244.5 312.496 244.4 312.296 C 244.3 312.096 244.1 311.796 243.8 311.696 C 243.6 311.596 243.4 311.596 243.4 311.396 L 243.4 310.996 C 243.5 310.596 243.5 310.296 243.5 309.896 C 243.6 309.196 243.5 308.396 243.5 307.696 C 243.5 307.296 243.4 306.996 243.4 306.696 C 243.3 306.496 243.2 306.296 243 306.096 C 242.9 305.996 242.8 305.896 242.6 305.896 C 242.5 305.796 242.5 305.796 242.4 305.796 C 242.3 305.796 242.2 305.696 242.2 305.696 L 243.8 306.096 Z M 243.8 306.096 L 241.7 305.296 M 265.3 306.296 C 260.2 302.196 256.4 296.896 251.6 292.296 C 251.9 287.196 252.5 282.596 252.5 277.996 C 252.4 265.396 253.2 252.796 252.2 240.196 C 251.6 232.496 253.7 225.096 255.8 217.696 C 259.9 203.596 257.6 189.096 255.5 175.196 C 254 165.296 253.8 155.696 254.5 145.896 C 255.2 137.296 255.3 128.696 256 120.096 C 256.9 107.896 258 95.896 254.9 83.596 C 252.2 73.196 251.6 62.296 247.4 52.296 C 244.1 44.496 244.1 44.496 233.9 30.996 C 224.8 21.396 223.4 21.296 215.6 16.596 C 209.6 12.996 203.7 9.596 196.4 8.896 C 187.1 7.996 178.5 3.896 169.3 2.396 C 153.3 -0.204 137.5 1.196 121.7 3.596 C 100.5 6.896 79.6 10.996 63.3 27.196 C 55.6 34.896 47.7 42.196 44.4 52.896 C 43.5 55.896 41.5 58.496 40 61.196 C 33.1 72.896 34.7 78.196 33.7 93.396 C 34.3 94.496 32.3 101.096 31.6 102.896 C 30.7 113.096 30.6 106.596 30.7 110.996 C 31 124.296 31.1 137.596 31.2 150.796 C 31.3 162.796 31.8 174.796 29.6 186.596 C 27.2 199.096 27.4 211.696 27.3 224.296 C 27.3 227.096 27.4 229.996 26.7 232.696 C 24.6 242.096 25.1 251.496 25.6 260.896 C 26.3 273.696 25.7 286.396 27.2 299.496 C 19.8 305.296 12.5 311.096 5.1 316.696 C 2.5 318.596 1 320.696 1 324.096 C 1.2 338.196 1.2 352.296 1.3 366.396 C 1.3 370.196 3.1 372.296 7 372.596 C 25.1 373.696 43.1 374.796 61.1 375.996 C 84.5 377.496 107.8 378.896 131.2 380.396 C 157.7 382.096 184.2 383.896 210.7 385.596 C 214.3 385.796 217.6 384.996 220.7 383.096 C 234.6 374.696 248.6 366.296 262.6 358.096 C 266 356.096 267.3 353.496 267.3 349.596 C 267.4 337.296 267.7 324.996 268 312.796 C 268 310.296 267.5 307.996 265.3 306.296 Z M 35.2 243.096 C 36.4 234.696 37.5 226.396 37.3 217.896 C 37 206.896 38.3 196.096 39.9 185.296 C 42.1 170.296 41.3 155.196 41 140.096 C 40.9 134.596 40.8 129.096 40.9 123.696 C 40.9 122.296 41 120.896 41.1 119.496 C 41.2 118.696 41.3 117.896 41.3 116.996 C 41.3 116.596 41.6 116.296 41.9 115.996 C 42.3 115.496 42.8 114.996 43.2 114.496 C 43.3 114.396 43.4 114.296 43.6 114.196 C 43.7 114.196 43.9 114.196 44 114.296 C 45.8 115.096 48.9 117.996 49 118.196 C 49 118.296 52.6 120.996 52.6 121.096 C 52.7 121.196 50.4 126.196 50.4 126.396 C 54.7 126.396 53.6 124.996 57.1 118.696 C 57.3 118.296 53.6 115.796 53.6 115.296 C 53 114.696 52.8 113.896 52.5 113.196 C 52.2 112.296 51.7 111.496 51.2 110.796 C 50.9 110.396 50.6 110.096 50.3 109.696 C 50 109.396 49.7 109.096 49.4 108.796 C 49.2 108.596 49.1 108.396 49.1 108.096 C 49 107.696 48.8 107.396 48.7 106.996 C 48.3 106.096 47.9 105.096 47.6 104.096 C 46.9 102.196 46.3 100.196 45.7 98.196 C 45.1 96.196 44.5 94.196 43.8 92.196 C 43.4 91.096 43 90.096 42.6 88.996 C 43.3 79.596 45.1 70.596 51.3 62.996 C 52.7 61.196 53.6 58.896 54.3 56.796 C 57.1 47.596 63.3 40.996 70.4 35.096 C 74.8 31.396 78.8 26.996 83.9 24.496 C 84 24.396 84.4 24.696 84.5 24.696 C 84.7 24.796 84.9 24.896 85.1 24.996 C 85.5 25.296 85.8 25.596 86 25.996 C 86.4 26.496 86.5 27.196 86.8 27.696 C 87 28.196 87.2 28.796 87.4 29.296 C 87.8 30.396 88.2 31.396 88.5 32.496 C 88.6 32.696 88.6 32.796 88.7 32.896 C 88.7 32.996 88.8 33.096 88.8 33.096 C 88.8 33.096 89 33.196 89.1 33.196 C 89.5 33.296 89.9 33.496 90.3 33.596 C 90.4 33.596 89.9 36.296 89.9 36.496 L 89.9 36.996 C 89.9 37.396 89.8 37.896 89.8 38.296 C 89.7 39.196 89.7 40.096 89.6 40.996 C 89.6 41.296 89.5 41.696 89.6 41.996 C 89.7 42.296 89.8 42.496 89.9 42.796 C 90.7 44.396 91.1 50.396 91.1 50.396 C 91.1 50.396 92.4 46.996 92.3 46.796 C 92.2 46.496 92.2 46.296 92.1 45.996 C 92 45.496 91.9 44.896 91.8 44.396 C 91.7 43.696 91.6 42.996 91.5 42.196 C 91.5 41.896 91.4 41.696 91.4 41.396 C 91.4 41.196 91.3 41.096 91.4 40.896 C 91.5 40.596 91.6 40.296 91.8 40.096 C 91.9 39.796 92.1 39.496 92.2 39.196 C 92.2 39.196 92.8 39.296 92.9 39.396 C 93.1 39.496 93.3 39.596 93.5 39.596 C 94.1 39.696 94.6 39.896 95.1 40.196 C 95.3 40.296 95.5 40.396 95.7 40.596 C 95.8 40.796 95.9 40.996 96 41.196 C 96.5 42.496 97 43.896 97.6 45.196 C 97.7 45.396 97.8 45.696 98 45.896 C 98.2 46.096 98.4 46.196 98.6 46.296 C 99.9 47.096 101.3 47.896 102.6 48.696 C 102 47.696 101.1 46.896 100.3 45.896 C 99.1 44.396 98.3 42.596 98 40.696 C 97.9 40.296 97.9 39.896 97.9 39.496 C 96.9 38.796 95.9 38.196 94.9 37.496 C 94.5 37.196 94 36.996 93.7 36.696 C 93.6 36.596 93.5 36.396 93.5 36.196 C 93.4 35.896 93.3 35.696 93.2 35.396 C 92.8 34.296 92.5 33.196 92.1 32.196 C 92 31.896 91.9 31.496 91.6 31.396 C 91.5 31.296 91.3 31.296 91.1 31.196 C 90.8 30.996 90.7 30.596 90.6 30.296 C 90.5 29.896 90.4 29.396 90.3 28.996 C 90.2 28.696 90.1 28.296 90.1 27.896 L 90.1 27.496 C 90 26.796 89.8 26.096 89.8 25.396 C 89.7 23.596 90.1 21.796 91.1 20.196 C 121.6 15.696 152.4 11.996 179.2 35.496 L 179.2 49.496 C 179.2 49.896 179.2 50.396 179 50.796 C 178.9 50.896 178.9 50.996 178.8 51.196 C 178.7 51.496 178.6 51.796 178.4 51.996 C 178.1 52.496 177.8 52.996 177.4 53.596 C 177 54.196 176.6 54.796 176.4 55.496 C 176.5 55.396 176.6 55.396 176.7 55.296 L 177 54.996 C 177.2 54.796 177.5 54.596 177.7 54.496 C 178.2 54.196 178.6 53.796 179 53.396 C 179.2 53.196 179.3 52.996 179.5 52.696 C 179.7 52.396 179.9 51.896 180.1 51.596 C 180.4 51.296 180.6 50.796 180.7 50.296 C 180.8 50.096 180.9 49.996 180.9 49.796 C 181 49.596 181 49.396 181.1 49.096 C 181.2 48.596 181.3 48.196 181.4 47.696 C 181.8 45.696 181.9 43.696 182.2 41.696 C 182.3 40.896 182.5 40.196 182.7 39.396 C 191 45.896 199.6 51.596 200.8 62.996 C 201.8 72.596 203.5 81.996 206.2 91.296 C 207 93.996 207.7 96.796 207.7 99.596 C 207.7 118.296 208.6 136.896 205.6 155.496 C 204 165.396 204.1 175.696 204 185.796 C 204 196.596 203.4 207.396 202.4 218.096 C 201.4 228.596 201.4 238.996 204 249.196 C 205.4 254.596 204.5 259.996 203.9 265.496 C 202.7 276.196 202.2 286.996 201.5 297.796 C 201.3 300.396 201.4 303.096 200.3 305.896 C 145.9 302.896 91.6 299.896 37 296.796 C 37 296.796 36.8 295.096 36.8 294.996 C 36.7 294.296 36.6 293.596 36.5 292.896 C 36.3 291.496 36.2 290.196 36.1 288.796 C 36 287.396 36.1 286.096 36.2 284.796 L 36.2 284.296 C 36.2 283.796 36.3 283.196 36.4 282.796 C 36.5 282.296 36.6 281.696 36.7 281.196 C 37 279.996 37.3 278.796 37.8 277.596 C 37.9 277.396 37.9 277.296 38 277.096 C 38.1 276.996 38.3 276.896 38.5 276.796 C 41.1 275.796 43.6 274.796 46.2 273.796 C 46.5 273.696 46.6 273.296 46.8 272.996 C 47 272.696 47.2 272.396 47.5 272.096 C 47.7 271.896 48 271.696 48.2 271.496 C 48.6 271.096 48.8 270.596 49 270.096 C 49.4 269.296 49.8 268.396 50.1 267.596 C 50.3 267.196 50.5 266.796 50.6 266.496 C 50.6 266.396 50.6 266.296 50.7 266.196 C 51 265.696 51.7 265.296 52.1 264.996 C 53 264.296 53.8 263.496 54.4 262.596 C 53.6 262.996 53 263.496 52.2 263.996 C 51.9 264.196 51.5 264.396 51.1 264.496 C 51 264.496 50.9 264.496 50.7 264.596 C 50.6 264.596 50.6 264.696 50.6 264.696 C 50.4 264.896 50.2 265.196 50 265.496 C 49.6 266.096 49.2 266.696 48.8 267.296 C 48.3 267.996 47.8 268.696 47.3 269.496 C 46.8 270.296 46.5 271.096 45.7 271.496 C 45.5 271.596 45.2 271.696 44.9 271.796 C 42.4 272.596 39.8 273.496 37.3 274.296 C 36.8 274.496 36.3 274.596 35.8 274.996 L 35.8 273.996 C 35.9 273.496 35.8 272.996 35.9 272.596 L 35.9 270.596 C 35.9 269.196 35.8 267.896 35.8 266.496 C 35.7 263.796 35.5 261.096 35.4 258.496 C 34.6 253.496 34.5 248.296 35.2 243.096 Z M 33 307.996 C 34.4 306.896 36.2 307.196 37.8 307.296 C 69.9 309.096 102 310.796 134.1 312.596 C 155.1 313.796 176.1 314.996 197.2 316.096 C 198.2 316.196 199.2 316.396 200.3 316.496 C 202.3 320.496 203.9 324.596 205.1 329.596 C 143.8 325.596 83 321.696 21.1 317.696 C 25.3 313.496 29.3 310.896 33 307.996 Z M 208.3 374.896 C 203.8 375.596 199.4 374.996 195.3 374.496 C 195.1 374.496 194.9 374.296 194.8 374.196 C 194.6 374.096 194.5 373.996 194.3 373.796 C 194 373.596 193.7 373.296 193.4 372.996 C 192.8 372.396 192.4 371.596 191.8 370.996 C 191.6 370.796 191.3 370.596 191.2 370.396 C 191 369.996 190.9 369.596 190.8 369.196 C 190.8 369.096 190.8 368.996 190.7 368.796 C 190.6 368.696 190.5 368.596 190.5 368.396 C 190 367.796 189.6 367.196 189.3 366.496 C 189.2 366.296 189.2 365.996 189.2 365.796 C 189.3 365.196 189 364.596 188.8 364.096 C 188.7 363.596 188.6 363.196 188.5 362.696 C 188.5 362.596 188.4 362.396 188.3 362.296 C 188.1 361.996 187.8 361.796 187.5 361.596 C 186.8 360.796 186.1 360.096 185.4 359.396 C 185.1 359.096 184.8 358.896 184.5 358.696 C 184.7 358.796 184.8 359.096 185 359.296 C 185.1 359.496 185.3 359.696 185.5 359.896 C 185.8 360.296 186.1 360.696 186.3 361.296 C 186.3 361.496 186.5 361.796 186.6 361.996 C 186.9 362.596 187.1 363.096 187.2 363.696 C 187.4 364.496 187.5 365.296 187.5 366.096 C 187.6 366.796 187.6 367.596 187.7 368.296 C 187.7 368.296 188.2 368.496 188.3 368.496 C 188.4 368.596 188.4 368.796 188.4 368.996 C 188.6 369.496 188.9 369.996 189.2 370.496 C 189.3 370.696 189.4 370.896 189.5 371.096 L 189.5 372.796 C 189.5 372.996 189.5 373.296 189.4 373.496 C 189.2 373.796 188.8 373.996 188.9 374.396 C 188.5 374.396 187.9 374.496 187.5 374.396 C 187.4 374.396 187.3 374.396 187.2 374.296 C 186.5 374.196 185.9 374.196 185.2 374.196 C 183.9 374.096 182.6 373.996 181.3 373.996 C 170 373.296 158.7 372.496 147.4 371.796 C 136.1 371.096 124.8 370.296 113.5 369.596 C 102.2 368.896 90.9 368.096 79.6 367.396 C 68.3 366.696 57 365.896 45.7 365.196 C 40 364.796 34.4 364.496 28.7 364.096 C 25.9 363.896 23 363.696 20.2 363.596 C 18.8 363.496 17.4 363.396 16 363.296 C 15.7 363.296 11.9 363.096 11.9 362.996 L 11.9 353.396 L 12 353.296 C 12.1 353.196 12.1 353.196 12.2 353.096 C 12.3 352.896 12.4 352.796 12.5 352.596 C 12.8 352.196 13 351.896 13.3 351.496 C 13.6 351.096 14 350.696 14.3 350.296 C 14.4 350.096 14.5 349.996 14.6 349.796 C 14.8 349.596 15.1 349.396 15.3 349.296 C 15.6 349.096 15.9 348.996 16.2 348.796 C 16.8 348.496 17.4 348.196 18.1 347.996 C 18.6 347.796 19.1 347.696 19.6 347.796 C 20 347.896 20.4 348.096 20.7 348.396 C 21.8 349.196 23 349.996 24.3 350.296 C 24.6 350.396 24.7 350.096 24.9 349.996 C 25.4 349.496 26 349.096 26.5 348.796 C 26.6 348.696 26.8 348.596 26.9 348.596 C 27.2 348.396 27.5 348.296 27.8 348.096 C 29 347.596 30.3 347.496 31.6 347.396 C 30.7 347.096 29.7 346.896 28.6 346.796 C 28 346.796 27.4 346.796 26.9 347.096 C 26.8 347.196 26.7 347.296 26.7 347.296 C 26.6 347.396 26.4 347.496 26.3 347.596 L 25.4 348.196 C 25.3 348.196 25.3 348.296 25.2 348.296 C 25 348.396 24.8 348.496 24.7 348.696 C 24.6 348.796 24.3 348.996 24.1 348.996 C 24 348.996 23.8 348.896 23.6 348.796 C 23.5 348.696 23.3 348.696 23.2 348.596 C 22.9 348.396 22.6 348.196 22.4 348.096 C 21.6 347.496 20.8 346.696 20 345.996 C 19.9 345.896 19.8 345.896 19.7 345.796 L 19.3 345.796 C 19 345.896 18.7 345.896 18.4 345.996 C 18.2 345.996 18.1 346.096 17.9 346.096 L 17.6 346.096 C 17.3 346.096 17 346.196 16.7 346.196 C 16.3 346.296 15.8 346.396 15.4 346.496 C 14.1 346.796 12.9 347.096 11.6 347.496 L 11.6 327.396 C 77.2 331.596 142.6 335.896 208.3 340.096 L 208.3 374.896 Z M 249 332.796 L 249 331.296 C 249 330.996 249 330.596 249.2 330.296 C 249.3 330.096 249.3 329.996 249.4 329.896 C 249.4 329.796 249.5 329.796 249.5 329.696 C 249.8 329.196 250.1 328.696 250.5 328.196 C 252.2 326.196 253.2 323.896 253 321.096 C 254.1 320.296 255.2 319.396 257.1 319.496 C 257.8 329.296 257.3 339.496 257 349.896 C 244.4 357.396 231.8 364.896 218.7 372.596 L 218.7 338.696 C 228.9 333.296 239 327.996 249.2 322.696 C 249.5 323.096 249.7 323.596 249.8 324.096 C 249.9 324.396 249.8 324.796 249.8 325.096 C 249.8 325.296 249.7 325.396 249.6 325.596 C 249.6 325.696 249.5 325.796 249.4 325.996 C 249.3 326.096 249.1 326.296 249 326.396 C 248.8 326.496 248.7 326.696 248.5 326.896 C 248.3 327.096 248.1 327.396 248 327.596 C 247.9 327.696 247.8 327.796 247.8 327.996 C 247.7 328.096 247.6 328.296 247.6 328.496 C 247.3 328.996 247 329.596 246.6 330.096 C 246.4 330.296 246.2 330.596 246.2 330.896 C 246.2 330.996 246.2 331.096 246.3 331.196 L 246.3 335.096 C 246.3 335.796 246.4 336.396 246.4 337.096 C 246.4 337.596 246.3 338.296 246 338.696 L 245.7 338.996 C 245.7 338.996 245.6 339.096 245.6 339.196 C 245.6 339.296 245.5 339.296 245.4 339.396 C 244.7 340.196 243.8 340.796 242.9 341.396 C 243.5 341.296 244.1 341.196 244.6 340.896 C 245 340.696 245.4 340.396 245.9 340.196 C 246 340.196 246.1 339.996 246.3 339.996 C 246.3 339.996 246.3 339.996 246.4 339.996 C 246.6 339.696 246.7 339.396 246.9 338.996 C 247 338.896 247 338.696 247.1 338.496 C 247.2 338.296 247.2 338.196 247.3 337.996 C 247.3 337.896 247.4 337.796 247.4 337.696 C 247.5 337.296 247.6 336.896 247.8 336.496 C 247.9 336.296 247.9 336.096 248 335.896 C 248 335.796 248.1 335.696 248.1 335.496 C 248.1 335.296 248.1 335.096 248.2 334.996 C 248.2 334.796 248.3 334.596 248.5 334.496 C 248.6 334.496 248.6 334.496 248.7 334.496 L 249 332.796 Z" stroke="black" stroke-width="2" stroke-miterlimit="10"/>
    <path d="M 134.8 158.095 C 132.4 161.695 132.2 166.595 133.9 170.595 C 134.4 171.795 135.1 172.895 136.2 173.595 C 138.4 174.895 141.2 173.695 143.5 172.495 C 146.5 170.895 149.6 168.995 150.8 165.795 C 151.7 163.495 151.3 160.795 150.2 158.595 C 149.6 157.195 148.7 155.995 147.7 154.895 C 147 154.195 146.4 153.295 145.3 153.195 C 142.8 152.795 140.1 153.595 138 154.895 C 136.7 155.795 135.6 156.895 134.8 158.095 Z" fill="#6B00FA" stroke="black" stroke-width="0.5" stroke-miterlimit="10"/>
    <path d="M 89.3 158.795 C 88.5 160.195 87.9 161.695 87.8 163.295 C 87.6 165.995 88.9 168.495 90.1 170.895 C 90.3 171.395 90.6 171.895 91 172.195 C 91.4 172.495 91.9 172.595 92.4 172.695 C 97.4 173.395 102.6 171.395 105.8 167.495 C 106.4 166.695 106.9 165.895 107.2 164.995 C 107.6 163.595 107.6 162.195 107.5 160.795 C 107.4 158.795 107.2 156.495 105.7 155.095 C 105 154.395 104.1 153.895 103.2 153.495 C 102.1 152.895 100.8 152.195 99.6 151.795 C 98.7 151.595 97.6 151.895 96.8 152.195 C 94.7 152.895 92.9 154.295 91.4 155.895 C 91 156.395 90.6 156.795 90.2 157.295 C 90 157.595 89.8 157.795 89.7 158.095 C 89.6 158.195 89.5 158.595 89.3 158.795 Z" fill="#6B00FA" stroke="black" stroke-width="0.5" stroke-miterlimit="10"/>
    <path d="M 95.7 175.496 C 88.1 175.496 81.9 169.296 81.9 161.696 C 81.9 154.096 88.1 147.896 95.7 147.896 C 103.3 147.896 109.5 154.096 109.5 161.696 C 109.5 169.296 103.3 175.496 95.7 175.496 Z M 95.7 151.896 C 90.3 151.896 85.9 156.296 85.9 161.696 C 85.9 167.096 90.3 171.496 95.7 171.496 C 101.1 171.496 105.5 167.096 105.5 161.696 C 105.5 156.296 101.1 151.896 95.7 151.896 Z" fill="black"/>
    <path d="M 140.101 176.496 C 132.501 176.496 126.301 170.296 126.301 162.696 C 126.301 155.096 132.501 148.896 140.101 148.896 C 147.701 148.896 153.901 155.096 153.901 162.696 C 153.901 170.296 147.701 176.496 140.101 176.496 Z M 140.101 152.896 C 134.701 152.896 130.301 157.296 130.301 162.696 C 130.301 168.096 134.701 172.496 140.101 172.496 C 145.501 172.496 149.901 168.096 149.901 162.696 C 149.901 157.296 145.501 152.896 140.101 152.896 Z" fill="black"/>
    <path d="M 89.301 170.596 C 87.901 168.496 84.5 166.096 84.5 163.696 C 84.5 156.596 87.9 150.896 95 150.896 C 95.1 150.896 100.301 150.896 100.401 150.896 C 101.201 151.696 102.001 152.396 102.601 153.196 C 101.701 152.996 100.901 152.896 100.001 152.896 C 94.101 152.896 89.201 157.696 89.201 163.696 C 89.201 166.596 90.301 169.196 92.201 171.196 L 89.301 170.596 Z" fill="black"/>
    <path d="M 136.9 172.396 C 135.9 172.296 130.499 170.2 129.499 170 C 128.099 167.9 129.499 160.1 129.499 157.5 C 129.499 150.7 137.7 151.4 144.4 151 L 146.4 153.996 C 145.8 153.896 145.1 153.796 144.4 153.796 C 138.5 153.796 133.6 158.596 133.6 164.596 C 133.7 167.696 134.9 170.396 136.9 172.396 Z" fill="black"/>
  </g>
</svg>