<?xml version="1.0" encoding="utf-8"?>
<svg width="32px" height="32px" fill="none" xmlns="http://www.w3.org/2000/svg">
  <g transform="matrix(0.082435, 0, 0, 0.082435, 0.917565, 0.917617)">
    <path d="M 32.766 135.135 C 32.261 120.412 31.051 105.488 32.463 90.866 C 33.875 76.143 38.211 61.32 47.589 49.824 C 52.732 43.471 59.286 38.429 65.74 33.387 C 75.824 25.623 86.11 17.858 98.11 13.219 C 128.564 1.522 164.463 14.026 187.252 37.32 C 192.093 42.261 196.429 47.707 199.958 53.656 C 213.572 76.648 213.168 104.984 212.362 131.706 C 210.647 191.807 209.236 251.908 208.025 312.008 C 164.563 314.227 121.001 313.924 77.639 311 C 63.925 310.092 50.11 308.983 36.799 305.252 C 33.976 304.445 32.463 304.344 32.16 301.319 C 31.858 297.79 31.555 294.26 31.253 290.731 C 30.749 283.672 30.446 276.513 30.345 269.454 C 30.043 255.135 30.345 240.815 30.85 226.496 C 31.354 212.177 32.06 197.857 32.564 183.437 C 33.068 169.017 33.371 154.698 32.967 140.278 C 32.866 138.664 32.766 136.95 32.766 135.135 Z" fill="white" stroke="black" stroke-width="0.5" stroke-miterlimit="10"/>
    <path d="M 7.353 370.496 C 76.227 378.16 145.504 380.681 214.681 383.202 C 214.781 367.471 213.672 351.639 211.252 336.008 C 193.202 338.529 174.95 337.521 156.798 336.513 C 141.773 335.605 126.748 334.798 111.723 333.992 C 102.042 333.487 92.261 332.882 82.58 332.378 C 72.799 331.874 63.017 331.37 53.236 330.866 C 43.454 330.361 33.572 329.958 23.79 329.656 C 18.849 329.454 14.009 329.353 9.068 329.252 C 7.353 329.252 5.841 329.051 5.538 330.966 C 5.236 333.084 5.639 335.504 5.74 337.622 C 6.244 347.403 6.648 357.084 7.152 366.866 C 7.152 368.076 7.253 369.286 7.353 370.496 Z" fill="#E0E3BD" stroke="black" stroke-width="0.5" stroke-miterlimit="10.0004"/>
    <path d="M 21.874 312.412 C 23.891 310.496 26.008 308.479 28.731 307.571 C 31.05 306.765 33.571 306.865 36.092 306.865 C 83.79 308.378 131.487 309.991 179.084 311.706 C 185.84 311.907 192.596 312.21 199.252 313.017 C 201.067 313.218 202.882 313.521 204.294 314.731 C 205.403 315.739 206.109 317.151 206.613 318.664 C 209.436 325.924 211.151 333.487 211.857 341.252 C 196.731 334.899 179.386 339.033 163.05 337.823 C 155.789 337.319 148.731 335.706 141.47 334.798 C 124.932 332.68 108.193 334.294 91.454 334.395 C 73.605 334.496 55.756 332.781 37.907 331.168 C 30.546 330.462 23.185 329.756 15.924 329.151 C 14.21 328.949 7.958 329.353 7.655 326.933 C 7.454 324.714 11.689 321.891 13 320.68 C 16.025 317.857 18.95 315.134 21.874 312.412 Z" fill="#E0E3BD" stroke="black" stroke-width="0.5" stroke-miterlimit="10.0004"/>
    <path d="M 211.655 117.387 C 212.361 107 213.168 96.614 211.554 86.328 C 208.832 69.387 199.655 54.059 188.26 41.353 C 176.865 28.648 162.949 18.261 149.336 8.076 C 180.899 4.95 215.689 14.328 234.344 39.942 C 251.991 64.042 251.689 96.412 250.781 126.261 C 248.966 183.437 247.151 240.512 245.336 297.689 C 235.655 303.134 225.268 307.269 214.479 309.991 C 212.058 310.596 208.63 311.201 206.916 308.983 C 205.504 307.168 205.907 305.151 206.109 303.033 C 206.714 296.68 206.109 289.924 206.109 283.47 C 206.109 269.958 206.21 256.546 206.411 243.134 C 206.613 229.723 206.916 216.311 207.42 202.899 C 207.823 189.487 208.428 175.975 209.134 162.563 C 209.84 149.151 210.546 135.74 211.453 122.429 C 211.453 120.614 211.554 119 211.655 117.387 Z" fill="#847F88" stroke="black" stroke-width="0.5" stroke-miterlimit="10.0004"/>
    <path d="M 217.404 378.26 C 232.026 373.016 246.143 366.664 259.757 359.201 C 260.563 358.798 261.37 358.294 261.874 357.487 C 262.278 356.781 262.379 355.975 262.479 355.168 C 263.891 343.269 265.303 331.168 264.194 319.269 C 264.093 317.958 263.79 316.445 262.58 316.042 C 261.773 315.739 260.765 316.042 259.958 316.445 C 246.849 321.891 233.74 327.336 220.631 332.882 C 218.009 333.991 215.085 335.302 213.169 337.521 C 211.555 339.437 212.362 342.664 212.362 345.084 C 212.362 352.243 213.068 359.504 214.479 366.563 C 215.286 370.395 216.295 374.327 217.404 378.26 Z" fill="#847F88" stroke="black" stroke-width="0.5" stroke-miterlimit="10.0004"/>
    <path d="M 212.16 335.302 C 212.664 336.109 213.269 336.815 214.177 337.017 C 214.983 337.218 215.891 336.714 216.597 336.311 C 231.924 327.739 247.252 319.269 262.58 310.697 C 256.832 306.765 251.185 302.731 245.437 298.798 C 244.832 298.395 244.126 297.891 243.42 297.79 C 242.412 297.588 241.504 297.891 240.496 298.294 C 230.614 301.723 220.832 305.151 210.95 308.58 C 208.328 309.487 205.404 310.596 204.093 313.117 C 203.891 313.521 205.605 314.428 205.807 314.731 C 206.109 315.336 206.009 316.344 206.009 317.05 C 206.109 319.168 206.513 321.386 207.017 323.403 C 208.025 327.739 209.74 331.773 212.16 335.302 Z" fill="#847F88" stroke="black" stroke-width="0.5" stroke-miterlimit="10.0004"/>
    <path d="M 86.613 215.605 C 88.327 209.555 85.1 204.109 80.461 198.664 C 73.302 190.294 66.747 181.521 65.235 169.824 C 61.907 143.404 76.63 117.589 100.932 108.211 C 126.444 98.328 154.68 107.202 169.907 129.79 C 176.663 139.774 180.091 150.765 180.091 162.866 C 180.091 173.958 176.562 183.538 168.797 191.504 C 165.066 195.236 161.94 199.572 158.007 203.101 C 153.873 206.731 152.36 210.866 152.663 216.109 C 152.865 220.244 152.36 224.378 152.461 228.513 C 152.461 228.815 152.461 229.118 152.461 229.319 C 152.461 229.723 152.36 230.025 152.36 230.328 C 152.36 230.53 152.36 232.446 152.461 232.446 C 151.755 232.446 151.049 232.446 150.444 232.546 C 149.638 232.546 148.831 232.647 148.024 232.546 C 146.512 232.345 145.1 232.345 143.587 232.244 C 143.285 232.244 142.982 232.244 142.579 232.143 C 141.974 232.143 141.47 232.042 140.865 232.042 C 140.663 232.042 140.461 231.941 140.159 231.941 C 139.856 231.941 139.554 231.941 139.251 231.941 C 138.142 231.941 136.932 231.941 135.722 231.941 C 135.722 231.336 135.621 230.731 135.621 230.126 C 135.52 228.916 135.52 227.706 135.52 226.496 C 135.52 224.177 135.419 221.857 135.419 219.538 C 135.419 219.437 135.419 219.336 135.318 219.235 C 135.218 219.135 135.117 219.135 135.016 219.135 C 132.596 218.933 130.176 219.135 127.755 219.437 C 127.755 220.849 127.755 222.261 127.655 223.773 C 127.655 224.177 127.655 224.58 127.655 224.983 C 127.655 225.588 127.655 226.093 127.554 226.698 C 127.554 226.899 127.453 227 127.453 227.101 C 127.352 227.303 127.352 227.605 127.352 227.807 C 127.251 228.916 127.251 230.126 127.453 231.235 C 126.747 231.235 126.041 231.235 125.234 231.235 C 124.327 231.235 123.318 231.235 122.411 231.034 C 121.302 230.832 120.092 230.933 118.982 230.832 C 118.579 230.832 118.075 230.832 117.671 230.731 C 116.562 230.731 115.453 230.53 114.344 230.53 C 113.739 230.53 113.234 230.53 112.629 230.53 C 112.529 230.53 111.016 230.63 110.915 230.731 C 110.915 229.723 111.016 228.614 111.016 227.605 C 111.016 227.101 111.016 226.597 111.117 225.992 C 111.117 225.488 111.218 224.983 111.218 224.479 C 111.218 222.462 111.218 220.446 111.117 218.328 C 108.495 217.824 105.772 217.622 103.05 217.622 C 102.949 219.941 102.848 222.261 102.646 224.58 C 102.545 225.689 102.545 226.899 102.445 228.109 C 102.445 228.412 102.445 228.714 102.445 229.017 C 102.445 229.219 102.445 229.42 102.344 229.521 C 102.243 229.723 101.739 229.723 101.537 229.723 C 100.125 229.824 98.613 229.723 97.201 229.622 C 96.596 229.622 95.89 229.521 95.285 229.521 C 93.672 229.42 92.058 229.42 90.445 229.319 C 89.94 229.319 89.335 229.219 88.831 229.219 C 88.529 229.118 88.226 229.017 87.823 229.017 C 87.722 229.017 86.108 228.916 86.108 228.916 C 86.108 228.815 86.108 228.714 86.108 228.614 C 86.108 227.504 86.108 226.294 86.108 225.084 C 86.108 224.58 86.008 224.076 86.209 223.572 C 86.31 223.37 86.209 223.168 86.209 222.967 C 86.209 222.462 86.209 221.958 86.209 221.454 C 86.209 220.143 86.31 218.933 86.31 217.622 C 86.512 217.622 86.512 217.219 86.613 215.605 Z M 119.285 197.051 C 120.192 197.152 121.1 197.152 122.008 197.252 C 123.419 197.353 124.932 197.454 126.344 197.656 C 125.839 196.143 125.335 194.631 124.73 193.219 C 124.529 192.614 124.226 192.11 124.024 191.605 C 123.823 191.101 123.52 190.698 123.318 190.194 C 123.218 190.093 123.218 189.891 123.218 189.79 C 123.117 189.286 122.915 188.883 122.814 188.378 C 122.31 187.168 121.907 185.857 121.402 184.547 C 121.201 183.941 120.999 183.437 120.697 182.832 C 120.697 182.933 120.495 183.236 120.495 183.236 C 120.394 183.437 120.192 183.639 120.092 183.841 C 118.781 185.656 117.571 187.471 116.461 189.387 C 115.856 190.294 115.352 191.303 114.747 192.311 C 114.444 192.815 114.243 193.32 113.94 193.723 C 113.839 193.925 113.739 194.126 113.638 194.328 C 113.537 194.731 113.134 195.135 112.831 195.538 C 112.428 196.042 112.024 196.546 111.722 197.152 C 111.722 197.152 112.024 197.152 112.125 197.152 C 112.226 197.152 112.428 197.152 112.529 197.152 C 112.831 197.152 113.134 197.152 113.436 197.152 C 114.041 197.152 114.545 197.152 115.15 197.051 C 115.352 197.051 115.655 196.95 115.856 196.95 C 116.159 196.95 116.461 196.95 116.764 197.051 C 117.369 197.051 117.873 197.152 118.478 197.152 C 118.781 196.95 119.083 196.95 119.285 197.051 Z" fill="#272F49"/>
    <path d="M 84.293 212.781 C 85.906 206.832 82.78 201.487 78.243 196.143 C 71.184 187.874 64.73 179.302 63.318 167.907 C 60.091 141.992 74.512 116.782 98.31 107.605 C 123.318 97.925 150.948 106.597 165.973 128.782 C 172.528 138.563 175.957 149.353 176.057 161.151 C 176.057 172.042 172.629 181.42 164.965 189.185 C 161.335 192.916 158.31 197.151 154.377 200.479 C 150.343 204.008 148.831 208.042 149.133 213.286 C 149.335 217.319 148.831 221.353 148.931 225.386 C 148.931 225.689 148.931 225.891 148.931 226.193 C 148.931 226.496 148.831 226.899 148.831 227.201 C 148.831 227.403 148.831 229.218 148.931 229.218 C 148.226 229.218 147.62 229.218 146.915 229.218 C 146.108 229.218 145.301 229.319 144.494 229.218 C 143.083 229.017 141.57 229.017 140.158 228.916 C 139.856 228.916 139.553 228.916 139.251 228.815 C 138.646 228.815 138.142 228.714 137.537 228.714 C 137.335 228.714 137.133 228.613 136.931 228.613 C 136.629 228.613 136.326 228.613 136.024 228.613 C 134.915 228.613 133.705 228.613 132.595 228.613 C 132.595 228.008 132.494 227.504 132.494 226.899 C 132.394 225.689 132.394 224.58 132.394 223.37 C 132.394 221.05 132.293 218.832 132.293 216.512 C 132.293 216.412 132.293 216.311 132.192 216.21 C 132.091 216.109 131.99 216.109 131.889 216.109 C 129.57 215.907 127.15 216.109 124.831 216.412 C 124.831 217.823 124.831 219.235 124.73 220.647 C 124.73 221.05 124.73 221.454 124.73 221.857 C 124.73 222.361 124.73 222.966 124.629 223.571 C 124.629 223.773 124.528 223.874 124.528 223.975 C 124.427 224.176 124.427 224.479 124.427 224.68 C 124.326 225.79 124.326 226.899 124.528 228.008 C 123.822 228.008 123.116 228.008 122.41 228.008 C 121.503 228.008 120.595 228.008 119.688 227.806 C 118.579 227.605 117.469 227.706 116.259 227.605 C 115.856 227.605 115.352 227.605 114.948 227.504 C 113.839 227.504 112.831 227.302 111.721 227.302 C 111.116 227.302 110.612 227.302 110.007 227.302 C 109.906 227.302 108.394 227.403 108.394 227.504 C 108.394 226.496 108.495 225.487 108.495 224.378 C 108.495 223.874 108.495 223.37 108.595 222.865 C 108.595 222.361 108.696 221.857 108.696 221.353 C 108.696 219.336 108.696 217.319 108.595 215.302 C 105.974 214.899 103.352 214.596 100.73 214.596 C 100.629 216.916 100.528 219.134 100.427 221.454 C 100.327 222.563 100.327 223.773 100.226 224.882 C 100.226 225.185 100.226 225.487 100.226 225.79 C 100.226 225.991 100.226 226.193 100.125 226.294 C 100.024 226.496 99.52 226.496 99.318 226.496 C 97.906 226.596 96.495 226.496 95.083 226.395 C 94.478 226.395 93.772 226.294 93.167 226.294 C 91.553 226.193 89.94 226.193 88.427 226.092 C 87.923 226.092 87.419 225.991 86.814 225.991 C 86.511 225.991 86.209 225.79 85.806 225.79 C 85.705 225.79 84.192 225.689 84.192 225.689 C 84.192 225.588 84.192 225.487 84.192 225.386 C 84.192 224.277 84.192 223.067 84.192 221.958 C 84.192 221.454 84.091 220.949 84.293 220.546 C 84.394 220.344 84.293 220.143 84.293 219.941 C 84.293 219.437 84.293 218.933 84.293 218.428 C 84.293 217.218 84.394 215.907 84.394 214.697 C 84.192 214.697 84.192 214.395 84.293 212.781 Z M 116.36 194.529 C 117.268 194.63 118.175 194.63 118.982 194.731 C 120.394 194.832 121.805 194.933 123.217 195.134 C 122.713 193.723 122.31 192.21 121.705 190.697 C 121.503 190.092 121.2 189.588 120.999 189.084 C 120.797 188.58 120.495 188.176 120.293 187.672 C 120.192 187.571 120.192 187.37 120.192 187.269 C 120.091 186.765 119.889 186.361 119.789 185.857 C 119.284 184.647 118.881 183.336 118.377 182.126 C 118.175 181.521 117.974 181.017 117.671 180.412 C 117.671 180.512 117.469 180.714 117.469 180.815 C 117.368 181.017 117.167 181.218 117.066 181.42 C 115.856 183.235 114.646 185.05 113.537 186.865 C 112.932 187.773 112.427 188.781 111.923 189.689 C 111.621 190.193 111.419 190.597 111.116 191.101 C 111.016 191.302 110.915 191.504 110.814 191.706 C 110.713 192.109 110.31 192.512 110.007 192.815 C 109.604 193.319 109.301 193.823 108.898 194.328 C 108.898 194.328 109.2 194.328 109.301 194.328 C 109.402 194.328 109.604 194.328 109.705 194.328 C 110.007 194.328 110.31 194.328 110.612 194.328 C 111.217 194.328 111.721 194.328 112.326 194.227 C 112.528 194.227 112.831 194.126 113.032 194.126 C 113.335 194.126 113.637 194.126 113.94 194.227 C 114.545 194.227 115.049 194.328 115.654 194.328 C 115.856 194.529 116.158 194.529 116.36 194.529 Z" fill="#4300BF" stroke="black" stroke-width="0.5" stroke-miterlimit="10.0004"/>
    <path d="M 155.386 113.454 C 136.932 98.731 116.058 96.311 94.479 105.992 C 59.89 121.521 50.613 167.504 71.386 190.395 C 74.311 193.622 76.529 197.353 79.554 200.58 C 82.277 203.504 83.185 206.63 82.983 210.563 C 82.68 216.008 82.176 221.555 82.983 227.504 L 100.731 228.311 L 101.033 215.706 L 107.89 215.908 L 107.89 216.008 C 107.89 216.109 107.89 216.21 107.89 216.311 C 107.89 216.412 107.89 216.613 107.89 216.714 C 107.89 216.916 107.89 217.118 107.89 217.218 C 107.89 217.42 107.89 217.622 107.89 217.823 C 107.89 218.025 107.89 218.328 107.89 218.529 C 107.89 218.832 107.89 219.034 107.89 219.336 C 107.89 219.639 107.89 219.941 107.89 220.244 C 107.89 220.546 107.89 220.849 107.89 221.151 C 107.89 221.454 107.89 221.756 107.89 222.059 C 107.89 222.361 107.89 222.664 107.89 222.966 C 107.89 223.269 107.89 223.571 107.89 223.874 C 107.89 224.176 107.89 224.378 107.89 224.681 C 107.89 224.882 107.89 225.185 107.89 225.487 C 107.89 225.689 107.89 225.991 107.89 226.193 C 107.89 226.395 107.89 226.597 107.89 226.798 C 107.89 226.899 107.89 227.101 107.89 227.302 C 107.89 227.403 107.89 227.504 107.89 227.605 C 107.89 227.907 107.789 228.21 107.789 228.613 C 107.89 228.613 107.89 228.613 107.991 228.613 L 108.092 228.613 L 108.193 228.613 C 108.294 228.613 108.495 228.613 108.596 228.613 C 108.899 228.613 109.201 228.613 109.504 228.613 C 110.714 228.613 111.823 228.714 113.033 228.714 C 114.445 228.815 115.958 228.815 117.47 228.916 C 118.781 229.017 120.193 229.017 121.504 229.118 C 122.31 229.118 123.117 229.218 124.025 229.218 C 124.126 229.218 124.226 229.218 124.327 229.218 C 124.529 229.218 124.63 229.218 124.831 229.118 C 124.831 228.815 124.932 228.412 124.932 228.109 L 124.932 228.008 C 124.932 227.907 124.932 227.706 125.033 227.605 C 125.033 227.302 125.134 227 125.134 226.798 C 125.134 226.597 125.134 226.395 125.134 226.193 C 125.134 225.991 125.134 225.79 125.134 225.689 C 125.134 225.487 125.134 225.386 125.134 225.185 C 125.134 224.983 125.134 224.781 125.134 224.58 C 125.134 224.378 125.134 224.076 125.134 223.773 C 125.134 223.47 125.134 223.168 125.134 222.966 C 125.134 222.664 125.134 222.361 125.134 222.059 C 125.134 221.756 125.134 221.454 125.134 221.151 C 125.134 220.849 125.134 220.546 125.134 220.244 C 125.134 219.941 125.134 219.639 125.134 219.336 C 125.134 219.134 125.134 218.832 125.134 218.529 C 125.134 218.328 125.134 218.126 125.134 217.924 C 125.134 217.723 125.134 217.622 125.134 217.42 C 125.134 217.319 125.134 217.218 125.134 217.118 L 125.134 217.017 L 131.991 217.218 L 131.689 229.723 C 132.798 229.723 150.344 230.529 150.344 230.529 C 150.344 226.899 150.344 223.269 150.344 219.538 C 150.344 217.823 150.344 216.109 150.344 214.395 C 150.344 213.891 150.344 213.387 150.243 212.983 C 150.243 211.773 150.243 210.563 150.445 209.454 C 150.646 208.244 151.05 206.933 151.857 205.924 C 152.058 205.723 152.26 205.42 152.462 205.218 C 152.764 204.916 152.966 204.714 153.268 204.412 C 153.773 203.908 154.277 203.302 154.781 202.798 C 155.789 201.689 156.798 200.681 157.806 199.571 C 158.815 198.462 159.722 197.454 160.73 196.345 C 161.739 195.235 162.646 194.227 163.554 193.118 C 164.462 192.008 165.47 191 166.378 189.891 C 167.285 188.782 168.193 187.773 169.1 186.664 C 169.604 186.16 170.008 185.555 170.512 185.05 C 173.941 180.815 176.361 176.076 177.167 170.63 C 180.798 147.336 173.638 127.975 155.386 113.454 Z M 98.21 212.378 C 98.008 212.378 97.806 212.378 97.504 212.378 C 97.403 212.378 97.302 212.378 97.201 212.378 C 97.201 212.882 97.201 213.386 97.201 213.891 C 97.201 214.899 97.1 216.008 97.1 217.017 C 97 219.134 96.899 221.353 96.899 223.471 L 87.924 223.067 C 87.924 222.16 88.025 221.252 88.025 220.344 C 88.126 218.328 88.227 216.311 88.227 214.193 C 88.327 212.076 88.428 209.857 88.428 207.739 C 88.428 206.933 88.529 206.126 88.529 205.319 C 88.529 204.916 88.428 204.513 88.428 204.21 C 88.428 203.807 88.327 203.403 88.327 203 C 88.327 202.798 88.227 202.697 88.227 202.496 C 88.126 202.395 88.126 202.193 88.025 202.092 C 87.924 201.79 87.823 201.487 87.622 201.185 C 87.319 200.58 87.016 199.975 86.714 199.37 C 86.411 198.765 86.008 198.26 85.605 197.655 C 85.403 197.353 85.1 196.95 84.798 196.647 C 80.563 191.504 76.529 186.16 72.495 180.815 C 66.748 172.95 65.739 163.773 66.848 154.496 C 69.369 133.622 80.26 118.496 99.722 110.731 C 118.983 103.067 137.235 106.294 152.562 120.109 C 168.193 134.126 173.941 151.975 168.899 172.849 C 167.688 178.193 164.26 182.025 160.831 185.857 C 156.596 190.597 152.26 195.235 147.924 199.874 C 147.722 200.076 147.52 200.176 147.42 200.378 C 147.42 200.479 147.42 200.479 147.319 200.58 C 147.218 200.681 147.218 200.781 147.117 200.882 C 147.016 201.084 146.815 201.286 146.714 201.487 C 146.613 201.588 146.613 201.689 146.512 201.79 C 146.411 201.891 146.411 201.891 146.411 201.992 C 146.21 202.395 146.008 202.798 145.806 203.202 C 145.403 204.109 145.201 205.118 144.999 206.126 C 144.899 206.63 144.899 207.134 144.899 207.639 C 144.899 207.84 144.899 208.143 144.899 208.344 C 144.899 208.445 144.899 208.546 144.899 208.748 C 144.899 208.95 144.899 209.151 144.899 209.353 C 144.899 209.655 144.899 210.059 144.899 210.361 C 144.899 210.966 144.899 211.471 144.899 212.076 C 144.899 213.185 144.899 214.395 144.899 215.504 C 144.899 216.613 144.899 217.823 144.899 218.933 C 144.899 220.042 144.899 221.252 144.899 222.361 C 144.899 222.966 144.899 223.471 144.899 224.076 C 144.899 224.378 144.899 224.681 144.899 224.983 C 144.899 225.084 144.899 225.185 144.899 225.286 L 144.899 225.386 C 144.798 225.487 144.697 225.386 144.697 225.386 C 144.596 225.386 144.394 225.386 144.294 225.386 C 143.789 225.386 143.184 225.386 142.68 225.286 C 140.462 225.185 138.243 225.084 136.025 224.983 C 136.126 223.067 136.126 221.151 136.226 219.336 C 136.226 218.731 136.327 218.025 136.327 217.42 C 136.327 216.613 136.327 215.907 136.327 215.101 C 136.327 214.798 136.327 214.597 136.327 214.294 L 135.016 214.092 C 134.512 213.992 134.008 213.891 133.504 213.891 C 132.394 213.79 131.386 213.689 130.277 213.588 C 129.168 213.487 128.058 213.487 126.949 213.487 C 125.84 213.487 124.731 213.487 123.621 213.487 C 122.714 213.487 121.705 213.487 120.798 213.487 L 120.394 225.084 L 111.42 224.681 L 111.823 213.286 C 111.319 213.185 110.714 213.084 110.21 212.983 C 109.1 212.781 108.092 212.681 106.983 212.58 C 105.874 212.479 104.764 212.479 103.655 212.378 C 102.546 212.378 101.437 212.378 100.327 212.277 C 99.823 212.277 99.218 212.277 98.714 212.277" fill="#E0E3BD"/>
    <path d="M 120.597 178.697 C 120.496 178.597 120.496 178.395 120.395 178.294 C 120.193 177.991 120.092 177.588 119.891 177.286 C 119.79 177.084 119.689 176.882 119.588 176.681 C 119.487 176.479 119.387 176.378 119.286 176.176 C 118.882 175.571 118.58 174.865 118.177 174.26 C 117.975 173.958 117.874 173.655 117.672 173.252 C 117.672 173.151 117.571 173.05 117.571 173.05 C 117.571 172.949 117.471 172.849 117.471 172.849 C 117.37 172.849 117.37 172.849 117.37 172.949 C 117.37 173.05 117.269 173.05 117.269 173.151 C 117.269 173.252 117.168 173.353 117.168 173.454 C 117.067 173.655 116.966 173.857 116.866 173.958 C 116.462 174.563 116.059 175.269 115.756 175.874 C 115.353 176.479 114.95 177.185 114.647 177.79 C 114.143 178.597 113.74 179.403 113.235 180.311 C 113.034 180.613 112.933 180.916 112.731 181.118 C 112.529 181.42 112.328 181.723 112.227 182.025 C 112.025 182.328 111.824 182.63 111.622 183.033 C 111.42 183.336 111.219 183.739 111.017 184.042 C 110.815 184.445 110.613 184.748 110.412 185.151 C 110.21 185.554 110.008 185.857 109.807 186.26 C 109.605 186.664 109.403 187.067 109.202 187.37 C 109 187.773 108.798 188.176 108.597 188.479 C 108.395 188.882 108.193 189.185 107.992 189.588 C 107.79 189.991 107.588 190.294 107.387 190.697 C 107.185 191.101 106.983 191.403 106.782 191.807 C 106.58 192.109 106.378 192.512 106.177 192.815 C 105.975 193.117 105.773 193.42 105.672 193.723 C 105.471 194.025 105.37 194.328 105.168 194.63 C 105.067 194.933 104.866 195.134 104.765 195.437 C 104.664 195.638 104.462 195.84 104.361 196.143 C 104.261 196.344 104.16 196.546 104.059 196.748 C 103.958 196.849 103.857 197.05 103.857 197.151 C 103.756 197.252 103.756 197.353 103.656 197.454 L 103.555 197.554 L 103.656 197.554 C 104.261 197.554 104.765 197.554 105.37 197.655 C 105.471 197.655 105.571 197.655 105.773 197.655 C 105.874 197.655 106.076 197.655 106.177 197.655 C 106.277 197.655 106.277 197.655 106.378 197.655 C 106.479 197.655 106.58 197.655 106.681 197.655 C 106.782 197.655 106.882 197.655 107.084 197.655 C 107.185 197.655 107.387 197.655 107.487 197.655 C 107.689 197.655 107.891 197.655 107.992 197.655 C 108.193 197.655 108.395 197.655 108.597 197.655 C 108.798 197.655 109 197.655 109.202 197.655 C 109.403 197.655 109.706 197.655 109.908 197.655 C 110.109 197.655 110.412 197.655 110.613 197.655 C 110.916 197.655 111.118 197.655 111.42 197.655 C 111.723 197.655 111.924 197.655 112.227 197.655 C 112.529 197.655 112.832 197.655 113.034 197.655 C 113.336 197.655 113.639 197.655 113.941 197.655 C 114.244 197.655 114.546 197.655 114.849 197.655 C 115.151 197.655 115.454 197.655 115.756 197.655 C 116.059 197.655 116.361 197.655 116.664 197.655 C 116.966 197.655 117.269 197.655 117.571 197.655 C 117.874 197.655 118.177 197.655 118.479 197.655 C 118.782 197.655 119.084 197.655 119.387 197.655 C 119.689 197.655 119.992 197.655 120.294 197.655 C 120.597 197.655 120.899 197.655 121.101 197.655 C 121.403 197.655 121.605 197.655 121.908 197.655 C 122.21 197.655 122.412 197.655 122.714 197.655 C 122.916 197.655 123.219 197.655 123.42 197.655 C 123.622 197.655 123.924 197.655 124.126 197.655 C 124.328 197.655 124.529 197.655 124.731 197.655 C 124.933 197.655 125.134 197.655 125.336 197.655 C 125.538 197.655 125.639 197.655 125.84 197.655 L 129.471 197.756 C 129.571 197.756 129.571 197.756 129.571 197.756 C 129.37 197.151 129.067 196.647 128.866 196.042 C 128.26 194.63 127.655 193.319 127.05 191.907 C 126.244 190.193 125.538 188.378 124.731 186.664 C 124.025 185.05 123.319 183.336 122.613 181.723 C 122.109 180.613 121.706 179.504 121.202 178.496 C 120.798 179.101 120.697 178.899 120.597 178.697 C 120.597 178.798 120.597 178.798 120.597 178.697 Z M 110.21 193.924 C 112.63 189.79 114.849 186.059 117.37 181.723 C 119.084 186.361 120.496 189.991 122.21 194.428 C 118.076 194.227 114.647 194.025 110.21 193.924 Z" fill="#E0E3BD"/>
    <path d="M 250.579 294.966 C 256.327 300.412 262.176 305.958 267.924 311.302 C 268.327 327.638 267.016 343.269 266.714 358.798 C 265.705 360.714 264.092 361.521 262.478 362.428 C 247.756 370.697 233.134 378.966 218.411 387.235 C 215.991 388.647 213.672 389.353 210.949 389.151 C 192.495 387.941 173.941 386.932 155.487 385.722 C 138.142 384.613 120.798 383.302 103.554 382.193 C 75.218 380.277 46.781 378.361 18.445 376.445 C 14.613 376.243 10.882 376.143 7.05 376.042 C 3.218 375.941 1.101 373.924 1.101 370.193 C 1 355.168 1 340.042 1 325.017 C 1 322.294 2.714 320.58 4.832 318.966 C 12.092 313.42 19.151 307.773 27.319 301.42 C 27.319 283.067 27.118 264.21 27.319 245.353 C 27.924 195.034 28.731 144.715 29.639 94.395 C 30.345 57.186 55.454 23.202 91.05 11.807 C 114.445 4.345 138.445 -0.293 163.252 1.32 C 194.915 3.539 222.243 14.429 240.999 41.555 C 251.083 56.177 256.529 72.513 256.63 90.362 C 256.73 122.832 255.117 155.202 254.109 187.672 C 252.999 221.756 251.89 255.84 250.781 289.924 C 250.579 291.336 250.579 292.647 250.579 294.966 Z M 36.395 301.017 C 91.05 303.639 145.403 306.26 199.453 308.781 C 200.562 306.966 200.26 305.454 200.26 304.042 C 200.966 281.756 201.672 259.37 202.378 236.983 C 203.588 194.933 204.899 152.883 206.008 110.933 C 206.21 102.664 206.714 94.295 205.705 86.127 C 202.781 62.429 189.773 44.48 171.117 30.564 C 146.916 12.614 120.193 12.715 93.168 21.992 C 60.597 33.085 40.126 62.127 39.521 96.715 C 38.412 159.437 37.403 222.16 36.395 284.882 C 36.395 290.126 36.395 295.269 36.395 301.017 Z M 240.293 293.05 C 240.394 291.336 240.596 290.227 240.596 289.118 C 241.302 266.731 242.008 244.445 242.814 222.059 C 244.025 185.353 245.335 148.547 246.546 111.841 C 246.949 99.236 247.453 86.631 244.327 74.328 C 235.554 39.841 212.26 20.782 178.378 13.421 C 175.957 12.917 173.437 12.614 171.016 12.312 C 168.697 12.009 166.479 11.606 164.159 11.505 C 161.941 11.404 159.621 11.505 157.302 11.505 C 168.394 16.144 178.075 22.194 186.546 30.261 C 206.21 49.118 217.705 71.303 216.596 99.337 C 215.386 129.589 214.983 159.941 214.176 190.193 C 213.369 216.513 212.26 242.832 211.655 269.151 C 211.352 281.454 211.554 293.857 211.554 306.462 C 220.63 302.126 230.31 297.689 240.293 293.05 Z M 207.722 379.067 C 207.722 366.966 207.722 355.47 207.722 343.672 C 142.075 340.344 76.731 337.017 11.286 333.689 C 11.286 344.58 11.286 355.067 11.286 365.958 C 76.832 370.294 142.075 374.731 207.722 379.067 Z M 201.47 319.168 C 195.621 318.059 189.672 318.563 183.823 318.26 C 134.109 315.84 84.294 313.42 34.58 311 C 33.471 311 32.059 310.798 31.252 311.403 C 26.21 315.033 20.966 318.361 16.328 323.807 C 79.756 327.033 142.479 330.26 205.705 333.386 C 204.294 328.546 202.983 324.21 201.47 319.168 Z M 218.31 342.664 C 218.31 353.554 218.31 364.243 218.31 375.739 C 231.52 368.277 244.125 361.218 256.63 354.159 C 257.033 343.269 258.041 332.68 257.537 321.487 C 244.125 328.748 231.218 335.706 218.31 342.664 Z M 253.403 312.21 C 250.579 308.479 247.453 305.555 244.125 302.428 C 233.537 307.37 222.949 312.21 212.26 317.252 C 213.571 322.395 214.68 327.134 216.798 331.975 C 229.201 325.218 241.201 318.765 253.403 312.21 Z" fill="#4300BF" stroke="white" stroke-width="2" stroke-miterlimit="10.0004"/>
    <path d="M 134.915 159.337 C 132.495 162.967 132.293 167.908 134.007 171.942 C 134.512 173.152 135.218 174.261 136.327 174.967 C 138.545 176.278 141.369 175.068 143.688 173.858 C 146.713 172.244 149.839 170.328 151.049 167.101 C 151.957 164.782 151.554 162.059 150.444 159.841 C 149.839 158.429 148.932 157.219 147.923 156.11 C 147.217 155.404 146.612 154.496 145.503 154.395 C 142.982 153.992 140.26 154.799 138.142 156.11 C 136.831 157.017 135.722 158.126 134.915 159.337 Z" fill="white" stroke="black" stroke-width="0.5" stroke-miterlimit="10"/>
    <path d="M 89.033 160.042 C 88.227 161.454 87.622 162.966 87.521 164.58 C 87.319 167.303 88.63 169.824 89.84 172.244 C 90.042 172.748 90.344 173.252 90.748 173.555 C 91.151 173.857 91.655 173.958 92.159 174.059 C 97.201 174.765 102.445 172.748 105.672 168.815 C 106.277 168.008 106.781 167.202 107.084 166.294 C 107.487 164.882 107.487 163.471 107.386 162.059 C 107.285 160.042 107.084 157.723 105.571 156.311 C 104.865 155.605 103.958 155.101 103.05 154.698 C 101.941 154.093 100.63 153.387 99.42 152.983 C 98.512 152.782 97.403 153.084 96.596 153.387 C 94.479 154.093 92.664 155.504 91.151 157.118 C 90.748 157.622 90.344 158.025 89.941 158.529 C 89.739 158.832 89.538 159.034 89.437 159.336 C 89.336 159.437 89.235 159.84 89.033 160.042 Z" fill="white" stroke="black" stroke-width="0.5" stroke-miterlimit="10"/>
    <path d="M 139.049 175.874 C 138.04 175.773 137.032 175.571 136.023 175.37 C 135.62 174.765 135.317 174.26 135.015 173.655 C 134.712 173.05 134.612 172.546 134.309 171.941 C 133.704 170.731 133.401 169.521 133.2 168.21 C 132.796 165.286 133.301 162.26 134.813 159.84 C 136.326 157.42 138.746 155.403 141.469 154.496 C 142.578 154.092 143.889 153.891 145.099 154.294 C 145.906 154.496 146.511 155 147.116 155.605 C 147.418 155.908 147.721 156.21 147.922 156.513 C 148.124 156.815 148.427 157.118 148.628 157.42 C 148.326 157.42 148.023 157.319 147.721 157.319 C 147.418 157.319 147.015 157.218 146.712 157.218 C 140.763 157.218 135.822 162.059 135.822 168.109 C 135.822 171.034 137.032 173.857 139.049 175.874 Z" fill="#272F49"/>
    <path d="M 91.049 174.059 C 90.948 174.059 90.646 173.454 90.646 173.353 C 90.545 173.151 90.343 172.849 90.242 172.546 C 90.041 172.042 89.738 171.437 89.637 170.933 C 89.436 170.328 89.436 169.824 89.234 169.218 C 89.032 168.513 88.831 167.807 88.629 167.101 C 88.226 165.689 88.024 164.277 88.226 162.765 C 88.427 160.345 89.738 158.025 91.553 156.311 C 93.368 154.597 95.688 153.487 98.108 152.983 C 98.915 152.782 99.721 152.681 100.629 152.882 C 101.637 153.084 102.545 153.689 103.251 154.496 C 103.654 154.899 103.957 155.303 104.259 155.706 C 104.36 155.908 104.562 156.109 104.36 156.311 C 104.259 156.412 104.158 156.412 104.057 156.412 C 103.755 156.412 103.352 156.311 103.049 156.311 C 102.747 156.311 102.343 156.21 102.041 156.21 C 96.091 156.21 91.15 161.05 91.15 167.101 C 91.15 170.025 92.259 172.647 94.175 174.664 C 94.074 174.664 91.049 174.059 91.049 174.059 Z" fill="#272F49"/>
    <path d="M 95.486 176.883 C 87.822 176.883 81.57 170.631 81.57 162.967 C 81.57 155.303 87.822 149.051 95.486 149.051 C 103.15 149.051 109.402 155.303 109.402 162.967 C 109.402 170.631 103.15 176.883 95.486 176.883 Z M 95.486 153.084 C 90.041 153.084 85.604 157.521 85.604 162.967 C 85.604 168.412 90.041 172.849 95.486 172.849 C 100.932 172.849 105.369 168.412 105.369 162.967 C 105.369 157.521 100.932 153.084 95.486 153.084 Z" fill="#E0E3BD"/>
    <path d="M 140.26 177.891 C 132.596 177.891 126.344 171.639 126.344 163.976 C 126.344 156.312 132.596 150.06 140.26 150.06 C 147.924 150.06 154.176 156.312 154.176 163.976 C 154.176 171.639 147.924 177.891 140.26 177.891 Z M 140.26 154.093 C 134.814 154.093 130.377 158.53 130.377 163.976 C 130.377 169.421 134.814 173.858 140.26 173.858 C 145.705 173.858 150.142 169.421 150.142 163.976 C 150.142 158.53 145.705 154.093 140.26 154.093 Z" fill="#E0E3BD"/>
    <path d="M 89.032 171.942 C 87.62 169.824 86.914 167.404 86.914 164.984 C 86.914 157.824 92.662 152.076 99.822 152.076 C 99.922 152.076 100.124 152.076 100.225 152.076 C 101.032 152.883 101.838 153.589 102.443 154.395 C 101.536 154.194 100.729 154.093 99.822 154.093 C 93.872 154.093 88.931 158.933 88.931 164.984 C 88.931 167.908 90.04 170.53 91.956 172.547 L 89.032 171.942 Z" fill="#E0E3BD"/>
    <path d="M 137.033 173.756 C 136.024 173.655 135.016 173.454 134.008 173.252 C 132.596 171.134 131.789 168.613 131.789 165.992 C 131.789 159.134 137.234 153.487 143.991 153.084 L 146.613 155.202 C 146.008 155.101 145.302 155 144.596 155 C 138.646 155 133.705 159.84 133.705 165.891 C 133.806 169.017 135.016 171.739 137.033 173.756 Z" fill="#E0E3BD"/>
  </g>
</svg>