<?xml version="1.0" encoding="utf-8"?>
<svg version="1.1" id="Layer_1" x="0px" y="0px" style="enable-background:new 0 0 168.3 193.8;" width="32px" height="32px" xmlns="http://www.w3.org/2000/svg">
  <style type="text/css">
	.unist0{fill:#FF007A;}
	.unist1{fill-rule:evenodd;clip-rule:evenodd;fill:#FF007A;}
</style>
  <g transform="matrix(0.165034, 0, 0, 0.165034, -0.003714, 0)">
    <path class="unist0" d="M 66 44.1 C 63.9 43.8 63.8 43.7 64.8 43.6 C 66.7 43.3 71.1 43.7 74.2 44.4 C 81.4 46.1 87.9 50.5 94.8 58.2 L 96.6 60.3 L 99.2 59.9 C 110.3 58.1 121.7 59.5 131.2 63.9 C 133.8 65.1 137.9 67.5 138.4 68.1 C 138.6 68.3 138.9 69.6 139.1 70.9 C 139.8 75.6 139.5 79.1 138 81.8 C 137.2 83.3 137.2 83.7 137.7 85 C 138.1 86 139.3 86.7 140.4 86.7 C 142.8 86.7 145.3 82.9 146.5 77.6 L 147 75.5 L 147.9 76.5 C 153 82.2 157 90.1 157.6 95.7 L 157.8 97.2 L 156.9 95.9 C 155.4 93.6 154 92.1 152.1 90.8 C 148.7 88.5 145.1 87.8 135.6 87.3 C 127 86.8 122.1 86.1 117.3 84.5 C 109.1 81.8 104.9 78.3 95.2 65.4 C 90.9 59.7 88.2 56.6 85.5 54 C 79.6 48.3 73.7 45.3 66 44.1 Z"/>
    <path class="unist0" d="M 140.5 56.8 C 140.7 53 141.2 50.5 142.3 48.2 C 142.7 47.3 143.1 46.5 143.2 46.5 C 143.3 46.5 143.1 47.2 142.8 48 C 142 50.2 141.9 53.3 142.4 56.8 C 143.1 61.3 143.4 61.9 148.2 66.8 C 150.4 69.1 153 72 154 73.2 L 155.7 75.4 L 154 73.8 C 151.9 71.8 147.1 68 146 67.5 C 145.3 67.1 145.2 67.1 144.7 67.6 C 144.3 68 144.2 68.6 144.2 71.5 C 144.1 76 143.5 78.8 142 81.7 C 141.2 83.2 141.1 82.9 141.8 81.2 C 142.3 79.9 142.4 79.3 142.4 75 C 142.4 66.3 141.4 64.2 135.3 60.7 C 133.8 59.8 131.2 58.5 129.7 57.8 C 128.1 57.1 126.9 56.5 127 56.5 C 127.2 56.3 133.1 58 135.4 59 C 138.9 60.4 139.5 60.5 139.9 60.4 C 140.2 60.1 140.4 59.3 140.5 56.8 Z"/>
    <path class="unist0" d="M 70.1 71.7 C 65.9 65.9 63.2 56.9 63.8 50.2 L 64 48.1 L 65 48.3 C 66.8 48.6 69.9 49.8 71.4 50.7 C 75.4 53.1 77.2 56.4 78.9 64.6 C 79.4 67 80.1 69.8 80.4 70.7 C 80.9 72.2 82.8 75.7 84.4 77.9 C 85.5 79.5 84.8 80.3 82.3 80.1 C 78.5 79.7 73.4 76.2 70.1 71.7 Z"/>
    <path class="unist0" d="M 135.4 115.2 C 115.6 107.2 108.6 100.3 108.6 88.6 C 108.6 86.9 108.7 85.5 108.7 85.5 C 108.8 85.5 109.5 86.1 110.4 86.8 C 114.4 90 118.9 91.4 131.4 93.2 C 138.7 94.3 142.9 95.1 146.7 96.4 C 158.8 100.4 166.3 108.6 168.1 119.7 C 168.6 122.9 168.3 129 167.5 132.2 C 166.8 134.7 164.8 139.3 164.3 139.4 C 164.2 139.4 164 138.9 164 138.1 C 163.8 133.9 161.7 129.9 158.2 126.8 C 154 123.2 148.6 120.5 135.4 115.2 Z"/>
    <path class="unist0" d="M 121.4 118.5 C 121.2 117 120.7 115.1 120.4 114.3 L 119.9 112.8 L 120.8 113.9 C 122.1 115.4 123.1 117.2 124 119.7 C 124.7 121.6 124.7 122.2 124.7 125.3 C 124.7 128.3 124.6 129 124 130.7 C 123 133.4 121.8 135.3 119.8 137.4 C 116.2 141.1 111.5 143.1 104.8 144 C 103.6 144.1 100.2 144.4 97.2 144.6 C 89.7 145 84.7 145.8 80.2 147.4 C 79.6 147.6 79 147.8 78.9 147.7 C 78.7 147.5 81.8 145.7 84.3 144.5 C 87.8 142.8 91.4 141.9 99.3 140.5 C 103.2 139.9 107.2 139.1 108.2 138.7 C 118.1 135.6 123 127.9 121.4 118.5 Z"/>
    <path class="unist0" d="M 130.5 134.6 C 127.9 128.9 127.3 123.5 128.7 118.4 C 128.9 117.9 129.1 117.4 129.3 117.4 C 129.5 117.4 130.1 117.7 130.7 118.1 C 131.9 118.9 134.4 120.3 140.8 123.8 C 148.9 128.2 153.5 131.6 156.7 135.5 C 159.5 138.9 161.2 142.8 162 147.6 C 162.5 150.3 162.2 156.8 161.5 159.5 C 159.3 168 154.3 174.8 147 178.7 C 145.9 179.3 145 179.7 144.9 179.7 C 144.8 179.7 145.2 178.7 145.8 177.5 C 148.2 172.4 148.5 167.5 146.7 162 C 145.6 158.6 143.3 154.5 138.7 147.6 C 133.2 139.6 131.9 137.5 130.5 134.6 Z"/>
    <path class="unist0" d="M 56 165.2 C 63.4 159 72.5 154.6 80.9 153.2 C 84.5 152.6 90.5 152.8 93.8 153.7 C 99.1 155.1 103.9 158.1 106.4 161.8 C 108.8 165.4 109.9 168.5 111 175.4 C 111.4 178.1 111.9 180.9 112 181.5 C 112.8 185.1 114.4 187.9 116.4 189.4 C 119.5 191.7 124.9 191.8 130.2 189.8 C 131.1 189.5 131.9 189.2 131.9 189.3 C 132.1 189.5 129.4 191.3 127.6 192.2 C 125.1 193.5 123.1 193.9 120.4 193.9 C 115.6 193.9 111.5 191.4 108.2 186.4 C 107.5 185.4 106.1 182.5 104.9 179.8 C 101.4 171.7 99.6 169.3 95.5 166.6 C 91.9 164.3 87.3 163.8 83.8 165.5 C 79.2 167.7 78 173.6 81.2 177.2 C 82.5 178.7 84.9 179.9 86.9 180.2 C 90.6 180.7 93.8 177.8 93.8 174.1 C 93.8 171.7 92.9 170.3 90.5 169.2 C 87.3 167.8 83.8 169.4 83.9 172.5 C 83.9 173.8 84.5 174.6 85.8 175.2 C 86.6 175.6 86.6 175.6 86 175.5 C 83.1 174.9 82.4 171.3 84.7 169 C 87.5 166.2 93.4 167.4 95.4 171.3 C 96.2 172.9 96.3 176.1 95.6 178.1 C 93.9 182.5 89.1 184.8 84.2 183.5 C 80.9 182.6 79.5 181.7 75.5 177.6 C 68.5 170.4 65.8 169 55.8 167.5 L 53.9 167.2 L 56 165.2 Z"/>
    <path class="unist1" d="M 3.4 4.3 C 26.7 32.6 62.6 76.6 64.4 79 C 65.9 81 65.3 82.9 62.8 84.3 C 61.4 85.1 58.5 85.9 57.1 85.9 C 55.5 85.9 53.6 85.1 52.3 83.8 C 51.4 82.9 47.5 77.2 38.7 63.5 C 32 53 26.3 44.3 26.2 44.2 C 25.8 44 25.8 44 38 65.8 C 45.7 79.5 48.2 84.4 48.2 85 C 48.2 86.3 47.8 87 46.2 88.8 C 43.5 91.8 42.3 95.2 41.4 102.3 C 40.4 110.2 37.7 115.8 30 125.3 C 25.5 130.9 24.8 131.9 23.7 134.2 C 22.3 137 21.9 138.6 21.7 142.2 C 21.5 146 21.9 148.4 23 152 C 24 155.2 25.1 157.3 27.8 161.4 C 30.1 165 31.5 167.7 31.5 168.7 C 31.5 169.5 31.7 169.5 35.3 168.7 C 43.9 166.7 51 163.3 54.9 159.1 C 57.3 156.5 57.9 155.1 57.9 151.5 C 57.9 149.2 57.8 148.7 57.2 147.3 C 56.2 145.1 54.3 143.3 50.2 140.5 C 44.8 136.8 42.5 133.8 41.9 129.8 C 41.4 126.4 42 124.1 45 117.8 C 48.1 111.3 48.9 108.6 49.4 102 C 49.7 97.8 50.2 96.1 51.4 94.8 C 52.7 93.4 53.8 92.9 56.9 92.5 C 62 91.8 65.3 90.5 67.9 88 C 70.2 85.9 71.2 83.8 71.3 80.7 L 71.4 78.4 L 70.1 77 C 65.4 71.6 0.3 0 0 0 C -0.1 0 1.5 1.9 3.4 4.3 Z M 34.1 146.5 C 35.2 144.6 34.6 142.2 32.8 141 C 31.1 139.9 28.5 140.4 28.5 141.9 C 28.5 142.3 28.7 142.7 29.3 142.9 C 30.2 143.4 30.3 143.9 29.6 145 C 28.9 146.1 28.9 147.1 29.8 147.8 C 31.2 148.9 33.1 148.3 34.1 146.5 Z"/>
    <path class="unist1" d="M 74.6 93.9 C 72.2 94.6 69.9 97.2 69.2 99.8 C 68.8 101.4 69 104.3 69.7 105.2 C 70.8 106.6 71.8 107 74.6 107 C 80.1 107 84.8 104.6 85.3 101.7 C 85.8 99.3 83.7 96 80.8 94.5 C 79.3 93.7 76.2 93.4 74.6 93.9 Z M 81 98.9 C 81.8 97.7 81.5 96.4 80 95.5 C 77.3 93.8 73.2 95.2 73.2 97.8 C 73.2 99.1 75.3 100.5 77.3 100.5 C 78.6 100.5 80.4 99.7 81 98.9 Z"/>
  </g>
</svg>